<svg width="512" height="512" viewBox="0 0 512 512" fill="none" xmlns="http://www.w3.org/2000/svg">
<path d="M118 50.7739C121 47.7739 124 43.7739 127 42.7739L139 38.7739L158 32.7739L259 6L284 11.7739L360 32.7739L388 38.7739L401 51.7739L411 61.7739L420 70.7739L428 78.7739L455 106.774L465 116.774L481 132.774C484 135.774 486 138.774 487 142.774L490 158.774C493.343 177.575 497.346 196.253 502 214.774L505 229.774L506 254.774V270.774L502 287.774C504 298.774 498 316.774 498 328.774L497 345.774C495 352.774 486 361.774 483 368.774L480 375.774L470 385.774L436 422.774L408 452.774L393 466.774C386 474.774 375 481.774 375 481.774L369 484.774L329 492.774L261 504.774L239 502.774C202.508 496.295 166.442 487.613 131 476.774L118 463.774L84 430.774C80 429.774 69 435.774 68 432.774C65 424.774 65 411.774 61 403.774L52 393.774L38 379.774L30 370.774L26 359.774L17 311.774L11 277.774C9.99997 268.774 6.99997 255.774 7.99997 246.774L9.99997 230.774L16 205.774L25 158.774L30 139.774L31 134.774L34 131.774L51 115.774L82 86.7739L89 78.7739L94 71.7739C99 63.7739 102 61.7739 110 56.7739L118 50.7739Z" fill="url(#paint0_linear_1_698)"/>
<path d="M259 202.5L92 183L97.5479 138.021L97.3457 138.075H96L96.5 132.5L98 122L96 117.029L99 116V115L99.5 113H100.635L106 69.5L125.5 52L196 49L259 6V202.5Z" fill="url(#paint1_linear_1_698)"/>
<path d="M73 275.5L92 183L209 196.5L189 299.5L73 275.5Z" fill="url(#paint2_linear_1_698)"/>
<path d="M388 39.5L420.08 72.2822L420 71L428 79L455 107L481 133C484 136 486 139 487 143L490 159C493.344 177.801 497.346 196.479 502 215L505 230L506 255V271L502 288C504 299 498 317 498 329L497 346C495 353 486 362 483 369L480 376L470 386L436 423L408 453L393 467C386.005 474.994 375.015 481.99 375 482L370.5 484L336 439.5L261 433.5V431C265.5 429 264.5 429.5 269.5 427.5L275 425.5L277 425L284 424L289 412C292 405 294 404 301 402L300 391C300 387 301 387 304 385V384L307 382L311 380L314 379C315 371 312 358 313 350C314 342 324 335 328 329C333 321 336 311 341 301C337 298 334 299 330 300L319 303C315 300 314 298 312 294V293L314 292V290L319 287V286L328 281C338 276 343 273 348 263C350 260 352 258 353 254L349 252C348 251 347 251 347 249V247L351 246H357L361 245C366 247 370 251 375 254L379 253V254C381 261 393 287 398 290L399 291L401 290L400 288C404 288 406 288 409 286L403 261C407 255 408 252 410 245L414 247C421 250 422 257 427 261L429 265L435 271L436 270V268L438 266L443 265V266L446 267L447 265V261L451 259L452 261L457 258C457 248 453 239 450 229C446 227 447 226 449 223L455 216C457 210 460 200 460 194L454 185C450 178 443 170 439 162L445 158V156C448 159 451 167 453 171C454 172 455 175 457 175L461 173L462 172C463 169 453 154 451 150L448 142L443 138L447 131L437 133L436 129L429 118V114L430 115C435 120 438 127 444 129H448C447 126 437 119 435 116L432.383 110.766L256.5 120L259 6L388 39.5Z" fill="url(#paint3_linear_1_698)"/>
<path d="M420.5 221.5L440 281L397 288.5L318.5 300.5H315.5L256 234L420.5 221.5Z" fill="#F26E29"/>
<path d="M484 275L487 276H488L489 277L488 280H485C484 282 485 284 487 284C489 285 488 286 488 288L492 289H493V287L494 285C498 283 498 288 502 288C504 299 498 317 498 329L497 346C495 353 486 362 483 369H482L480 370L476 367L471 362L464 368L461 372L457 375C454 372 459 348 459 343L452 342H451L454 338C464 328 469 315 476 304L481 300L478 299L476 295C475 292 474 295 473 292L476 291L479 290V288L477 287C479 286 477 285 478 283H476L475 282L476 280C477 277 481 276 484 275Z" fill="#FDC747"/>
<path d="M484 275L487 276H488L489 277L488 280H485C484 282 485 284 487 284C489 285 488 286 488 288V293C487 296 483 298 481 294L482 291L480 290H479V288L477 287C479 286 477 285 478 283H476L475 282L476 280C477 277 481 276 484 275Z" fill="#FDC747"/>
<path d="M478 283C481 285 479 286 480 287H483V289L482 291L480 290H479V288L477 287C479 286 477 285 478 283Z" fill="#D73C18"/>
<path d="M480 290V289H483L482 291L480 290Z" fill="#F99B2B"/>
<path d="M478 283C480 283 483 283 483 286V289V287H480C479 286 481 285 478 283Z" fill="#F26E29"/>
<path d="M487 276H488L489 277L488 280V279L486 278L487 276Z" fill="#F99B2B"/>
<path d="M479 290H480L482 291L481 294C483 298 487 296 488 293H489L490 297L489 300H488C485 297 484 298 481 300L478 299L476 295C475 292 474 295 473 292L476 291L479 290Z" fill="#D73C18"/>
<path d="M479 290L478 293L476 291L479 290Z" fill="#F26E29"/>
<path d="M475 358L482 368V369L480 370L476 367L471 362L475 358Z" fill="#BA6228"/>
<path d="M488 288L492 289V300C491 303 490 304 491 308H490C487 307 490 302 490 301L488 300H489L490 297L489 293H488V288Z" fill="#F26E29"/>
<path d="M488 288L492 289V292C490 294 492 298 490 298V297L489 293H488V288Z" fill="#F99B2B"/>
<path d="M492 289H493V292H492V289Z" fill="#F99B2B"/>
<path d="M452 342L459 343C459 348 454 372 457 375L454 377L453 376L445 375L446 374L452 342ZM452 299L454 301H457L471 302L468 305L467 307L451 308V307C450 305 447 306 446 304H449L448 302L449 301L452 299Z" fill="#F99B2B"/>
<path d="M451 308V307C450 305 447 306 446 304H449L450 305H468L467 307L451 308Z" fill="#B82417"/>
<path d="M452 299L454 301H457L450 302L449 301L452 299Z" fill="#FDC747"/>
<path d="M431 282V279L432 280C435 285 437 284 441 288L443 293L448 302L449 304H446C447 306 450 305 451 307V308C443 310 444 304 441 298C439 296 437 290 434 288L431 282Z" fill="#8B1B17"/>
<path d="M431 282L436 287C438 290 441 295 441 298C439 296 437 290 434 288L431 282Z" fill="#D73C18"/>
<path d="M434 288C437 290 439 296 441 298C444 304 443 310 451 308L467 307L465 309V308L460 309H447L444 307C445 311 448 310 451 310V311H446C441 306 435 294 434 288Z" fill="#D73C18"/>
<path d="M439 279C445 283 449 293 452 299L449 301L448 302L443 293L441 288C437 284 435 285 432 280L436 284L443 288L446 296V292L447 291V298L446 296V298L447 300C449 301 450 300 451 299C452 297 446 289 445 286L438 280L439 279Z" fill="#D73C18"/>
<path d="M450 358.5L446.085 375.135L453 376L451 378L444.5 378.5L445 375L448 360L451 342H452L450 358.5Z" fill="#8B1B17"/>
<path d="M480 370L476 367L471 362L464 368L462.692 369.744C463.692 370.744 466 376 468 377L480 370Z" fill="#8B1B17"/>
<path d="M339 364C342 366 344 367 343 371L338 385L332 402L326 403L318 402L321 380C322 377 329 373 331 371L339 364Z" fill="#FDC747"/>
<path d="M321 380H323C324 382 321 400 321 403H326L324 405.5L319 406.5L318 401.5L320 384L321 380Z" fill="url(#paint4_linear_1_698)"/>
<path d="M321 380H323C324 382 321 400 321 403H326L324 405.5L319 406.5L318 401.5L320 384L321 380Z" fill="#8B1B17"/>
<path d="M325 380L329 381L326 403H321C321 400 324 382 323 380H325Z" fill="#F26E29"/>
<path d="M325 380C325 377 330 376 333 375L341 368C342 371 333 378 330 379C329.5 380 329.5 380 329 381L325 380Z" fill="#FEB433"/>
<path d="M436 278V276L439 273L441 275L445 280L449 275C451 276 451 278 452 280V281L454 288L456 284L458 282L459 281L461 280V278V279L464 278L465 279C465 281 463 290 464 292H470L472 291L473 292C474 295 475 292 476 295L478 299C476 300 473 303 472 302L471 301V302L457 301H454L452 299C449 293 445 283 439 279L436 278Z" fill="#FEB433"/>
<path d="M461 278V279L464 278L465 279C465 281 463 290 464 292L463 294H462L463 296L460 297L457 296L455 292L454 288L456 284L458 282L459 281L461 280V278Z" fill="#F99B2B"/>
<path d="M459 281L461 280L459 293L462 294L463 296L460 297L457 296L455 292L454 288L456 284L458 282L459 281Z" fill="#B82417"/>
<path d="M458 282C457 285 457 290 455 292L454 288L456 284L458 282Z" fill="#D73C18"/>
<path d="M472 291L473 292C474 295 475 292 476 295L478 299C476 300 473 303 472 302L471 301L467 298C467 297 468 295 465 295H464V297H460L463 296L462 294H463L464 292H470L472 291Z" fill="#F26E29"/>
<path d="M460 297H464V295H465C468 295 467 297 467 298C465 298 457 301 456 298L457 296L460 297Z" fill="#F99B2B"/>
<path d="M449 275C451 276 451 278 452 280C450 281 449 276 449 275Z" fill="#FEB433"/>
<path d="M483 267H484L489 269C498 274 496 271 506 271L502 288C498 288 498 283 494 285L493 287V289H492L488 288C488 286 489 285 487 284C485 284 484 282 485 280H488L489 277L488 276V272C487 270 481 272 483 267Z" fill="#F26E29"/>
<path d="M487 284L488 283L493 284V289H492L488 288C488 286 489 285 487 284Z" fill="#D73C18"/>
<path d="M489 277H493L494 280L493 281C492 282 490 280 488 280L489 277Z" fill="#D73C18"/>
<path d="M493 277V276L492 275C493 274 495 273 496 275L494 280L493 277Z" fill="#D73C18"/>
<path d="M471 258H475L476 260C475 265 472 273 474 278V280C476 280 475 281 475 282L476 283H478C477 285 479 286 477 287L479 288V290L476 291L473 292L472 291L470 292H464C463 290 465 281 465 279C467 277 471 261 471 258Z" fill="#FEB433"/>
<path d="M474 280C476 280 475 281 475 282L476 283H478C477 285 479 286 477 287L479 288V290L476 291L473 292L472 291L473 289L474 280Z" fill="#D73C18"/>
<path d="M476 283H478C477 285 479 286 477 287L476 283Z" fill="#F26E29"/>
<path d="M469 292L471 291C472 289 469 280 472 280H474L473 289L472 291L470 292H469Z" fill="#F99B2B"/>
<path d="M494 256L506 255V271C496 271 498 274 489 269L491 259C491 256 493 258 494 256Z" fill="#FEB433"/>
<path d="M467 259L471 258C471 261 467 277 465 279L464 278H465V275L467 259Z" fill="url(#paint5_linear_1_698)"/>
<path d="M484 260L494 256C493 258 491 256 491 259L489 269L484 267C483 265 486 263 484 260Z" fill="#FDC747"/>
<path d="M484 273L483 272C481 271 479 269 479 266L481 267H483C481 272 487 270 488 272V276H487L484 275V273Z" fill="#D73C18"/>
<path d="M484 273V272H488V276H487L484 275V273Z" fill="#B82417"/>
<path d="M443 265V267H442L441 269H439V268L437 269V274L440 273L441 275L439 273L436 276V278L435 277L436 270V268L438 266L443 265Z" fill="#F99B2B"/>
<path d="M439 269H441L442 267H443L444 268C445 269 444 274 443 275C442 274 439 271 439 269Z" fill="#FEB433"/>
<path d="M484 260C486 263 483 265 484 267H481L480 265L484 260Z" fill="#F99B2B"/>
<path d="M447 263V261L451 259L452 261L449 262L447 265V263ZM461 278L462 277C463 275 463 275 465 275V278H464L461 279V278Z" fill="#FEB433"/>
<path d="M447 265C447 267 447 268 444 268L443 267V266L446 267L447 265Z" fill="#D73C18"/>
<path d="M459 281L458 280L459 279L461 278V280L459 281ZM469 225H471L476 244C476 245 474 246 473 245V248L468 251L466 252L465 242C464 239 463 230 464 228H465C465 226 467 226 469 225Z" fill="#F99B2B"/>
<path d="M469 225H471L476 244C476 245 474 246 473 245L471 238L469 225Z" fill="#FEB433"/>
<path d="M465 242C464 239 463 230 464 228H465C466 235 466 243 469 249L473 248L468 251L466 252L465 242Z" fill="#D73C18"/>
<path d="M465 242L468 251L466 252L465 242Z" fill="#D73C18"/>
<path d="M452 147L455 148V150H454C453 150 451 148 452 147Z" fill="#FEB433"/>
<path d="M194 135L193 136L191 134.5L189 134L191 133L196 129L194 135Z" fill="#F99B2B"/>
<path d="M372 65C375.912 62.0658 374.501 64.0153 376.5 59L363.5 48.5C360.5 51.5 357 51 354 53V54L361 58L360 62L362 65L356 66L351 72C354 72 361 71 363 69L369 65H372Z" fill="#F99B2B"/>
<path d="M379 47C381 49 388 56 391 56C394 57 409 63 411 62L420 71L421 87L413 85C413 87 417 87 414 90H413C412 89 412 87 410 89V96C412 100 412 102 416 105C419 103 420 99 423 99C426 100 428 102 429 104L435 116C437 119 447 126 448 129H444C438 127 435 120 430 115L429 114V118L436 129L437 133L447 131L443 138L448 142L451 150C453 154 463 169 462 172L461 173L457 175C455 175 454 172 453 171C451 167 448 159 445 156V158L439 162C443 170 450 178 454 185L460 194C460 200 457 210 455 216L449 223C447 226 446 227 450 229C453 239 457 248 457 258L452 261L451 259L447 261V265L446 267L443 266V265L438 266L436 268V270L435 271L429 265L427 261C422 257 421 250 414 247L410 245C408 252 407 255 403 261L409 286L401 290L399 291L398 290C393 287 381 261 379 254V253L375 254C370 251 366 247 361 245L357 246H351L347 247V249C347 251 348 251 349 252L353 254C352 258 350 260 348 263C343 273 338 276 328 281L319 286V287L314 290V292L312 293L311 290L303 271L298 260L291 245L287 234V213L278 216L269 217H267L265 216V214L264 203L263 202L260 208C260 208.242 259.999 208.47 259.994 208.683C259.99 208.848 259.981 209.004 259.968 209.151C259.947 209.381 259.913 209.589 259.855 209.776C259.796 209.97 259.713 210.14 259.593 210.288C259.208 210.762 258.46 211 257 211L251 209L255.196 210.398L256 180C256 171 257 152 257 152H253L252 157C251 165 251 164 243 166H239C238 168 236 170 234 168V167L230 168L229 164L233 162L231 159L230 158L227 154L225 152H222C224 148 226 138 229 136L236 126L240 121C243 117 247 114 252 112L257 108L274 114H279L281 117H290L306 112L310 111H312V105C314 103 314 102 316 102H317L320 103L321 101L323 88L322 85C319 84 322 81 323 79L324 78C326 76 332 75 334 75L351 72C354 72 361 71 363 69L369 65H372L376.5 59L365 51L363.5 48.5C363.5 48.5 364.759 48.3813 365.5 48.366L373.5 50L379 47Z" fill="#FDD153"/>
<path d="M257 152C257 152 256 171 256 180L255.196 210.398L251 209V198H247C246.875 197.938 246.715 197.86 246.524 197.769C246.143 197.586 245.639 197.351 245.051 197.082C242.735 196.025 239.102 194.454 236.417 193.56C236.32 193.527 236.224 193.495 236.13 193.465C235.684 193.321 235.268 193.197 234.894 193.101C234.475 192.993 234.107 192.919 233.807 192.887C233.406 192.844 233.125 192.875 233 193V198L234 203V207L235 208L234 209L232 210L230 209L228 206V204H227C225 201.001 224 203 222 204L221 205L215 208L214 209C212.718 211.563 211.977 214.008 209 215L206 219L203 220H197L193 219L190 220C190 218 189 217 187 217H190V214L194 202L191 201C193 199 202 200 204 200C207 200 207 199 207 196L206 190L204 187L205 186V183L213 179L209 178H210L214 177V176C217 175 217 174 217 172L218 171V170L226 169L225 168C225 167 225 166 227 165H228L229 164L230 168L234 167V168C236 170 238 168 239 166H243C251 164 251 165 252 157L253 152H257Z" fill="#FDC747"/>
<path d="M233 193H234L236.5 193.5L235 202H237L242 203V209C242 211 241 212 239 213H233V211L232 210L234 209L235 208L234 207V203L233 198V193Z" fill="#F99B2B"/>
<path d="M247 198H251V209H247V198Z" fill="#F99B2B"/>
<path d="M257 211C260 211 260 210 260 208L261 214V218L257 217L256 216V212L257 211Z" fill="#F99B2B"/>
<path d="M261 214V218L257 217C259 215 258 214 261 214Z" fill="#B82417"/>
<path d="M207 218L206 219L203 220H197L193 219L190 220L187 217H207.5L207 218Z" fill="#F26E29"/>
<path d="M230 201C232 204 233 206 230 209L228 206V204H227L222 205L215 208L214 209L216 204.5L217 202C219 200 226 199 228 199L230 201Z" fill="#D73C18"/>
<path d="M218 171L219 172H221C221 174 215 178 213 179L209 178H210L214 177V176C217 175 217 174 217 172L218 171ZM229 164L230 168L234 167V168L226 169L225 168C225 167 225 166 227 165H228L229 164Z" fill="#D73C18"/>
<path d="M227 165H228V167L225 168C225 167 225 166 227 165Z" fill="#FEB433"/>
<path d="M205 186C207 188 209 191 209 194L207 196L206 190L204 187L205 186Z" fill="#D73C18"/>
<path d="M217 202L216 204.5L214 209L210.5 217L206 219L207.5 217L211 211L213 208L215 204L210 201L217 202Z" fill="#F99B2B"/>
<path d="M338 242C342 245 354 242 359 243H364C369 244 375 248 378 251L382 249L394 276L401 290L399 292L398 290L379 254V253L375 254C370 251 366 247 361 245L357 246H351L347 247V248C345 246 344 247 342 248L341 247C338 247 336 245 333 243L328 239L327 240L322 233C322 231 324 230 326 229L338 242Z" fill="#F26E29"/>
<path d="M375 254C370 251 366 247 361 245L357 246H351L347 247V249C347 251 348 251 349 252L356 251L358.5 250C358.5 250 366 255 368 257L377 261L380 264C383 269 393 290 393 290L396 295L398 293L399 292L398 290L379 254V253L375 254Z" fill="#8B1B17"/>
<path d="M431 253H432V254L433 253L436 254V253C439 254 450 257 451 259L447 261V265L446 267L443 266V265L438 266L436 268V270L435 271L429 265C432 261 426 258 428 255L429 254L431 253Z" fill="#F99B2B"/>
<path d="M431 253H432V254L434 256H433V259C433 260 433 261 435 262H440L441 264H442L443 265L438 266L436 268V270L435 271L429 265C432 261 426 258 428 255L429 254L431 253Z" fill="url(#paint6_linear_1_698)"/>
<path d="M436 262H440L441 264H442L443 265L438 266L436 268L434 264L437 263L436 262Z" fill="#D73C18"/>
<path d="M436 262H440L441 264L437 263L436 262Z" fill="#F99B2B"/>
<path d="M431 253H432V254L434 256H433V259L432 258L431 259H430L428 255L429 254L431 253Z" fill="#8B1B17"/>
<path d="M431 253H432V254L434 256H433V259L432 258L431 259L430 257L432 254L431 253Z" fill="#D73C18"/>
<path d="M431 259L432 258L433 259C433 260 433 261 435 262H436L437 263L434 264L431 259Z" fill="#F26E29"/>
<path d="M441 261L443 260L447 263V265L446 267L443 266V265L442 264H441L440 262V261H441Z" fill="#B82417"/>
<path d="M440 261H441L442 264H441L440 262V261Z" fill="#F99B2B"/>
<path d="M433 259V256H434L435 258L439 260H443L441 261H440V262H435C433 261 433 260 433 259Z" fill="#D73C18"/>
<path d="M441 141L446 147C452 153 456 160 458 168L460 173H461L457 175C455 175 454 172 453 171C451 167 448 159 445 156L442 152L439 145L441 141Z" fill="#F99B2B"/>
<path d="M415 237L423 245C424.483 246.541 425.822 248.215 427 250L428 251L429 254L428 255C426 258 432 261 429 265L427 261C422 257 421 250 414 247L410 245L411 244L413 239L415 237Z" fill="#D73C18"/>
<path d="M415 237L423 245C424.483 246.541 425.822 248.215 427 250L419 247C416 246 415 241 413 239L415 237Z" fill="#8B1B17"/>
<path d="M411 244L413 239C415 241 416 246 419 247L427 250L428 251L425 250L421 249L414 244H411Z" fill="#B82417"/>
<path d="M251 129L253 128H254L255 129V143L265 146L266 147C264 150 261 149 258 150V149L256 150L254 149L253 151H252C250 151 248 149 248 146L247 137H251L252 134C252 132 253 132 251 129Z" fill="#F26E29"/>
<path d="M247 137H251V145L258 149L256 150L254 149L253 151H252C250 151 248 149 248 146L247 137Z" fill="#8B1B17"/>
<path d="M251 129L253 128H254L255 129L254 130C252 131 252 132 252 134C252 132 253 132 251 129Z" fill="#D73C18"/>
<path d="M418 231C422 236 428 245 434 246V249L433 252L436 253V254L433 253L432 254L431 253L429 254L428 251L427 250L426 249L423 245L415 237L418 231Z" fill="#F26E29"/>
<path d="M246 150C246 148 246 147 248 146C248 149 250 151 252 151H253L254 149L256 150L258 149V150L257 152H253L252 157C251 165 251 164 243 166H239C241 163 242 162 242 158H244L245 159L246 156V150Z" fill="#B82417"/>
<path d="M244 158L245 159V163L240 165L243 166H239C241 163 242 162 242 158H244Z" fill="#D73C18"/>
<path d="M244 158L245 159V163C244 162 245 159 242 158H244Z" fill="#F99B2B"/>
<path d="M248 156C250 157 249 161 248 162V156Z" fill="#D73C18"/>
<path d="M234 153L236 157L241 156L243 157L244 155V158H242C242 162 241 163 239 166C238 168 236 170 234 168V167L230 168L229 164L231 163V162V159L234 156V153Z" fill="#FEB433"/>
<path d="M269 214L290 210V228C300 241 305 261 313 275L318 287L319 286V287L314 290V292L312 293L311 290L303 271L298 260L291 245L287 234V233L285 232.5C284 230.5 284 217.5 284 217.5L279 216L269 217H267L265 216L263 202L264 200L267 198L269 214Z" fill="#F26E29"/>
<path d="M236 126L240 121C243 117 247 114 252 112L250 114L245 120L238 129L234 135L229 137V136L236 126Z" fill="#F99B2B"/>
<path d="M260 208L263 202L265 216L267 217H269.5L284 215.5H286L285.5 230.5L292 242L298 257L310 284L314 292L312 293L311 290L303 271L298 260L289.5 243.5L284 231L283.5 217.5L269 218.5L262 219L261 217L260 208Z" fill="#8B1B17"/>
<path d="M231 150L233 149C236 153 237 153 241 156L236 157L234 153V156L231 159L230 158L227 154L225 152H223L224 151L231 150Z" fill="#D73C18"/>
<path d="M223 152L224 151L231 150C231 152 230 151 228 152L230 153C229 155 228 154 227 154L225 152H223Z" fill="#D73C18"/>
<path d="M225 152H228L230 153C229 155 228 154 227 154L225 152Z" fill="#F99B2B"/>
<path d="M230 153L231 155L230 158L227 154C228 154 229 155 230 153ZM323 79L327 83H326V86L324 101H321L323 88L322 85C319 84 322 81 323 79Z" fill="#F99B2B"/>
<path d="M403 89C405 86 408 84 413 85C413 87 417 87 414 90H413C412 89 412 87 410 89V96C407 94 405 93 403 89Z" fill="#F99B2B"/>
<path d="M328 239L333 243C336 245 338 247 341 247L342 248L336 252L335 253L327 240L328 239Z" fill="#8B1B17"/>
<path d="M321 101H324L326 102L335 114L332 116C331 114 326 106 324 107C326 103 324 103 321 103H320L321 101Z" fill="#F26E29"/>
<path d="M321 101H324C323 103 323 103 321 103H320L321 101Z" fill="#D73C18"/>
<path d="M323 79L324 78C326 76 332 75 334 75C332 77 326 76 324 79L325 80C330 85 331 83 328 90L326 102L324 101L326 86V83H327L323 79Z" fill="#FDC747"/>
<path d="M246 136L247 137L248 146C246 147 246 148 246 150V156L245 159L244 158V150L246 136Z" fill="#F99B2B"/>
<path d="M246 136L247 137L248 146C246 147 246 148 246 150V136Z" fill="#B82417"/>
<path d="M244 150L246 156L245 159L244 158V150Z" fill="#F99B2B"/>
<path d="M316 102H317L320 103H321C324 103 326 103 324 107V106L317 105H315V104H314C313 106 314 109 312 110V105C314 103 314 102 316 102Z" fill="#FEB433"/>
<path d="M429 118L436 129L437 133H436C433 129 430 123 429 118Z" fill="#D73C18"/>
<path d="M229 136V137L234 135L230 138L229 137H228L225 146L226 145V150C228 150 231 148 233 149L231 150L224 151L223 152H222C224 148 226 138 229 136Z" fill="#FDC747"/>
<path d="M324 107C326 106 331 114 332 116L330 117L327 111L324 107Z" fill="#D73C18"/>
<path d="M430 115C435 117 437 124 442 128H443L442 126L448 129H444C438 127 435 120 430 115Z" fill="#FDC747"/>
<path d="M284 119H285C287 122 283 123 283 125L282 126V125L281 121L284 119Z" fill="#F99B2B"/>
<path d="M279 126L282 125V126C280 128 277 130 275 128L274 127L279 126Z" fill="#B82417"/>
<path d="M312 110C314 109 313 106 314 104H315V105C317 109 314 111 310 111H312V110Z" fill="#F26E29"/>
<path d="M250 131L251 129C253 132 252 132 252 134L251 137H250V131Z" fill="#D73C18"/>
<path d="M254 128L256 129C258 131 256 139 255 140V129L254 128Z" fill="#FEB433"/>
<path d="M246 136L250 131V137H247L246 136Z" fill="#F99B2B"/>
<path d="M281 117H290L287 118L285 119H284L281 117Z" fill="#FEB433"/>
<path d="M279 126L278 122L281 121L282 125L279 126ZM285 119L287 118C288 121 285 124 283 125C283 123 287 122 285 119Z" fill="#F99B2B"/>
<path d="M271 125L279 126L274 127L272 126L271 125Z" fill="#F26E29"/>
<path d="M272 126L274 127L275 128H272V126Z" fill="#FDC747"/>
<path d="M442 152L445 156C448 159 451 167 453 171C454 172 455 175 457 175H458C457 177 455 178 454 176L445 158V157L442 153L441 152L438 153C436 152 438 147 439 145L442 152Z" fill="#D73C18"/>
<path d="M272 128H270L271 125L272 126V128Z" fill="#F99B2B"/>
<path d="M284 179C286 181 296 194 296 194L291.5 194.5L282 182L284 179Z" fill="#D73C18"/>
<path d="M270 183L284 179L280 185L270 187V183Z" fill="#F26E29"/>
<path d="M270 183L284 179L280 185L270 187V183Z" fill="#F26E29"/>
<path d="M270 187L280 185L283 189L286 193L291.5 194.5L286 195L271 197L270 187Z" fill="#D73C18"/>
<path d="M282 182L291.5 194.5L287.5 194.864L286 193L283 189L280 185L282 182Z" fill="#8B1B17"/>
<path d="M118 51L126 52L107 69L110 71V76L111 78L112 77C113 75 115 75 117 74L120 72L126 73L124 66L125 64L132 63L136 68C139 65 142 66 146 65L149 64L162 67L168 68C172 66 176 71 175 74C173 76 169 74 168 73C165 75 151 76 147 78H143C146 81 145 83 147 86L151 89L150 91V92L148 93L147 95L146 104L140 102L138 103L136 105H131L129 107L127 109H126L123 108H119L120 107L116 106L115 104L104 107L105 110H96V109L91 108C93.5982 102.786 95.9344 97.4465 98 92L95 82H94C94 78 92 78 89 79L94 72C99 64 102 62 110 57L118 51Z" fill="#F99B2B"/>
<path d="M118 51L126 52L107 69L110 71V76L111 78L112 77V83H118C119 81 121 82 122 81L125 82L124 83V84L125 85L123 87C123 89 123 90 125 91L123 92C121 92 121 93 120 94H119L118 96H116L114 103L115 104L119 108L105 110H96V109L91 108C93.5982 102.786 95.9344 97.4465 98 92L95 82H94C94 78 92 78 89 79L94 72C99 64 102 62 110 57L118 51Z" fill="#F99B2B"/>
<path d="M122 81L125 82L124 83V84L119 85H118V83C119 81 121 82 122 81Z" fill="#F99B2B"/>
<path d="M123 92C127 93 129 90 134 90V96L138 103L136 105H131L129 107L127 109H126L123 108H119L120 107L116 106L115 104L114 103L116 96H118L119 94H120C121 93 121 92 123 92Z" fill="#FEB433"/>
<path d="M123 92C127 93 129 90 134 90V96L133 98H122L121 97L123 95L120 96V94C121 93 121 92 123 92Z" fill="#FDC747"/>
<path d="M134 92V96L133 98H122L121 97L123 95C127 94 128 97 131 96L134 92Z" fill="#F99B2B"/>
<path d="M134 96L138 103L136 105H131L129 107L128 106V103L127 102L128 100L125 99V98H133L134 96Z" fill="#8B1B17"/>
<path d="M134 96L138 103L136 105H131L133 102C134 101 135 100 134 98H133L134 96Z" fill="#B82417"/>
<path d="M128 100C134 99 133 106 128 104V103L127 102L128 100Z" fill="#8B1B17"/>
<path d="M125 99L128 100L127 102L128 103V106L129 107L127 109H126L123 108H119L120 107L116 106L118 105H119C122 104 125 103 125 100V99Z" fill="#D73C18"/>
<path d="M125 99L128 100L127 102L128 103C128 106 127 105 125 106L118 105H119C122 104 125 103 125 100V99Z" fill="#F99B2B"/>
<path d="M128 106L129 107L127 109H126L123 108L128 106Z" fill="#B82417"/>
<path d="M118 96L119 94H120V96L123 95L121 97L122 98L121 99L119 97L118 96Z" fill="#F99B2B"/>
<path d="M122 98H125V99H121L122 98Z" fill="#F26E29"/>
<path d="M114 103L119 105H118L116 106L115 104L114 103ZM119 97L121 99H125V100H119V97Z" fill="#FDC747"/>
<path d="M138 84C138 82 139 78 141 77L143 78C146 81 145 83 147 86L151 89L150 91V92L148 93L147 95L146 104L140 102L138 103L134 96V90L138 84Z" fill="#FEB433"/>
<path d="M134 92V90C136 91 144 100 140 102L138 103L134 96V92Z" fill="#D73C18"/>
<path d="M148 93V90L150 91V92L148 93Z" fill="#F99B2B"/>
<path d="M118 83V85L112 84L113 83H118Z" fill="#B82417"/>
<path d="M125 85L127 87V90L125 91C123 90 123 89 123 87L125 85Z" fill="#B82417"/>
<path d="M134 90C134 89 136 82 138 83V84L134 90Z" fill="#F99B2B"/>
<path d="M123 87C123 89 123 90 125 91L123 92C121 92 121 93 120 94H119C120 92 121 88 123 87Z" fill="#F26E29"/>
<path d="M112 83H113L112 84L109 83L111 78L112 77V83Z" fill="#F26E29"/>
<path d="M110 76H105L109 75L110 73V76Z" fill="#F26E29"/>
<path d="M124 83H127V85H128L130 82L131 85V86L125 85L124 84V83Z" fill="#F26E29"/>
<path d="M118 77L119 80L118 81L117 80L118 77Z" fill="#F26E29"/>
<path d="M119 85C120 82 122 83 124 83V84L119 85Z" fill="#D73C18"/>
<path d="M125 85L131 86L127 90V87L125 85Z" fill="#D73C18"/>
<path d="M125 82L122 81C121 82 119 81 118 83H114L116 81L117 82L119 80L121 79H125V82Z" fill="#D73C18"/>
<path d="M132 71C134 72 133 74 134 76L138 75C138 77 137 77 136 78V80L134 79L132 81L131 75L132 71Z" fill="#D73C18"/>
<path d="M163 82C165 80 181 75 185 75L188 79L201 81L211 82L213 88L214 90C210 96 204 100 200 107C197 111 194 120 191 122L188 123L182 125L176 130H173V129H172C170 128 170 127 170 126H169C165 126 165 127 162 128L154 131V128L158 120L163 104H162C162 101 166 94 166 89V87L167 88L163 82Z" fill="#FEB433"/>
<path d="M213 88L214 90C210 96 204 100 200 107C197 111 194 120 191 122L189 120L194 112C197 105 200 99 206 94L213 88Z" fill="#FDC747"/>
<path d="M170 126L179 122L181 124L176 128L173 129L170 126Z" fill="#F99B2B"/>
<path d="M196 129C199 128 204 130 206 132C207 135 199 135 199 136L200 138L193 136L194 135L193 134L191 133L196 129Z" fill="#FEB433"/>
<path d="M191 133L193 134L194 135L193 136L200 138L200.5 139C199.5 142 196 141.5 193 142L189 141C186 140 187 139 187 136L189 134L191 133Z" fill="#D73C18"/>
<path d="M190.5 136.5C190.5 136.5 199.5 140.5 199 141C198.5 141.5 196.5 142 195 142C193.5 142 193 142 193 142L189 141C186 140 187 139 187 136H189L190.5 136.5Z" fill="#8B1B17"/>
<path d="M319 87L322 85L323 88L321 101L320 103L317 102L318 99C320 95 318 91 319 87Z" fill="#B82417"/>
<path d="M315 89L319 87C318 91 320 95 318 99L317 102H316V101C317 98 316 92 315 89Z" fill="#D73C18"/>
<path d="M306 112L311 104L312 105V111H310L306 112Z" fill="#D73C18"/>
<path d="M120 72H119H122L123.219 66.3302L124 66L126 73L120 72Z" fill="#D73C18"/>
<path d="M292 92L297 93L296 110H293L292 108L290 109V110L289 112C288 114 284 113 285 111L286 100L287 96L288 99V96V100L291 99L292 92Z" fill="#FEB433"/>
<path d="M290 110L289 112C288 114 284 113 285 111L286 100L287 96L288 99L287 109H290V110Z" fill="#B82417"/>
<path d="M288 99V96V100L291 99L292 92L291 108H292L290 109H287L288 99Z" fill="#F99B2B"/>
<path d="M292 108L293 110H290V109L292 108Z" fill="#D73C18"/>
<path d="M86 118L91 108L96 109V110H100V112L99 115V116L96 117L98 122L96 138C96 140 90 141 89 143L88 144H87L81 128L86 118Z" fill="url(#paint7_linear_1_698)"/>
<path d="M96 171H95V172L93 173L85 174L79 177C77 177 77 178 76 179V180L75 181H73L72 182L67 185L52 196L53 197V198L54 200V201L56 209C59 204 70 195 75 191H77L82 187C85 183 90 181 93 179L99 175H98L96 174V171Z" fill="#8B1B17"/>
<path d="M28.5 247L32 246.5V220.5L30.5 217.5L32 205L42 193.5L50 198H51L52 196L73 181L79 156.5L83.5 148L87 144L81 128L93 104L98 92L95 82L94 73.5L88 80L75.5 94.5L65.5 110H63L65.5 113.5L43.5 150.5L25.5 185L24 217.5L25.5 242L28.5 247Z" fill="#BA6228"/>
<path d="M50 198L47 202L42 201L36.5 206L33.5 214.5L36.8887 222.972L37 223L38 220.5H39.5L39 224L38 225L37.3457 226.949C36.0469 230.859 36.375 230.75 39 236C39.9779 237.956 39.0423 240.867 38.0654 242.865C38.0433 242.91 38.0221 242.956 38 243L37 245L34 246L33.9941 245.988L33 246L32 246.5V233L31.043 221.043L31 221L30.5 218.5V217L32 205L41 194L42 193.5L50 198Z" fill="url(#paint8_linear_1_698)"/>
<path d="M78 184C77 186 70 189 68 190C63 193 59 196 53 197V198L54 200V201H53C51 200 53 200 51 198L52 196L67 185L73 181H78V184Z" fill="url(#paint9_linear_1_698)"/>
<path d="M52 196L53 197V198L54 200V201L56 209L55 213V214L52 217L50 218H49V216L48 212H47C47 208 49 201 51 198L52 196Z" fill="url(#paint10_linear_1_698)"/>
<path d="M49.9999 198H50.9999C48.9999 201 46.9999 208 46.9999 212H45.9999C43.9999 210 47.9999 200 49.9999 198Z" fill="#BA6228"/>
<path d="M51 198L50.5 201L48 212H47C47 208 49 201 51 198Z" fill="#8B1B17"/>
<path d="M165 261V300.5L189.5 328H203L225 330L229 335L230 348L242 376L314 379L306 385L301 389.5V403.5L291.5 408.5L285 426L277.5 427.5L261 433H257.5L252 431L235.5 385L237 375L227 349L225 339.5L221 336.5L203.5 332L186 336.5L171 322.5L159 308.5L160 297V281.5L164 260L165 261Z" fill="#8B1B17"/>
<path d="M285.5 233L290 244.5L298 259.375L303 270.875L311 289.875L312 292.875V293.875C314 297.875 315 299.875 319 302.875L330 299.875C334 298.875 337 297.875 341 300.875C336 310.875 333 320.875 328 328.875C324 334.875 314 341.875 313 349.875C312 357.875 314 378.875 314 378.875L311 379.875L307 381.875L304 383.875V384.875C301 386.875 300 386.875 300 390.875L301 401.875C294 403.875 292 404.875 289 411.875L284 423.875L277 424.875L261 430.875L257 305.875V288.875L256 252.875V233.875H282L285.5 233Z" fill="#FEB433"/>
<path d="M256 234L257 304.5L318.5 302.5L314.5 299.5L285.5 233L282 234H256Z" fill="#FDC747"/>
<path d="M40 271C43 270 44 267 47 265H50C48 268 49 274 51 276L56 277C61 278 61 285 62 289L63 294L82 309C84 310 85 324 89 327C97 334 108 340 117 345L109 376L107 384V385L101 386L100 389L98 401L97 405L92 407L91 411L90 421V427L84 431C84 431 69 436 68 433C65 425 65 412 61 404L60 397C58 386 57 373 54 362L52 355C50 349 48 347 44 341C42 339 39 329 38 325L31 308C31 301 37 287 38 279C36 277 36 277 37 275C38 274 38 271 40 271Z" fill="#BA6228"/>
<path d="M202 226L208 225L223 223V228C225 232 229 235 233 235L237 234C245 238 247 236 256 234V253L257 289V306V304L244 302L215 298H200L187 297L165 295V261L164 260L176 251L182 244C185 240 188 238 188 233C188 231 189 230 191 229L202 226Z" fill="#F99B2B"/>
<path d="M165 295L187 297L200 298H215L244 302L257 304L261 431H258L254 430C254 430 238 388 237 383L242 376L230 349V348L229 335L225 330L203 328L188 332L181 325C175 318 171 312 164 306L165 295Z" fill="#F26E29"/>
<path d="M105 110L112 109H118V110L100.5 113L101 110H105Z" fill="#8B1B17"/>
<path d="M101.176 108L110.235 107L125 106L121.5 108L118 109L96.5 111L96 110V109L101.176 108Z" fill="#F26E29"/>
<path d="M122 112L123 113L126 115L125 116V117H118V113V114L122 112Z" fill="#B82417"/>
<path d="M123 113L126 115L125 116L121 114L123 113Z" fill="#B82417"/>
<path d="M116 120L118 118L122 120L121 123L117 121L116 120Z" fill="#FEB433"/>
<path d="M122 120L124 119L123 125L121 123L122 120Z" fill="#D73C18"/>
<path d="M101.926 109.5L110.75 109H118L121 108L124 110.5L118 112L98 113.5L96.75 111.5V110.5L101.926 109.5Z" fill="url(#paint11_linear_1_698)"/>
<path d="M96 110H100V112L99 115V116L96 110Z" fill="#F99B2B"/>
<path d="M117 121L121 123L123 125H124V126L124.5 129.5L126 129V132C126 134 125 139 123 141L127 149C126 152 125 158 123 160L114 156C110 154 105 154 101 155L97 156L102 159L104 160L102 161L100 165L106 163V170L104 173H102V174L98 175L96 174V171H95V172L93 173C90.4858 172.67 87.9321 172.944 85.5488 173.793L85 174L79 177C77 177 77 178 76 179V180L75 181H73L74 175L78 161C79 156 82 148 87 144H88L89 143C90 141 96 140 96 138C102 136 105 129 109 125L116 120L117 121Z" fill="#F99B2B"/>
<path d="M120 164L118 170L116 171H113L108 169L114 161L114.5 160.5L117.5 161L120.5 161.5L121.5 161L123 160L120 164Z" fill="#F99B2B"/>
<path d="M102 159V158C104 157 114 159 115 161L111 165L108 169H106V163L100 165L102 161L104 160L102 159Z" fill="url(#paint12_linear_1_698)"/>
<path d="M92 171H95V172L93 173C90.2917 172.645 87.5376 172.989 85 174L79 177C82.9259 174.215 87.3335 172.181 92 171Z" fill="#B82417"/>
<path d="M103 171L106 167V170L104 173H102L103 171Z" fill="#F99B2B"/>
<path d="M103 171L102 173V174L96 172V171H103Z" fill="#F26E29"/>
<path d="M50 265H53C55 266 55 269 57 271C58 273 67 275 68 276C71 281 71 288 73 294L84 301L93 308L98 325L109 332L125 342L122 352L117 371L114 384H111L107 385V384L109 376L117 345C108 340 97 334 89 327C85 324 84 310 82 309L63 294L62 289C61 285 61 278 56 277L51 276C49 274 48 268 50 265Z" fill="#F99B2B"/>
<path d="M79 177L85 174L86 176L87 178L82 180L78 181H75L76 180V179C77 178 77 177 79 177Z" fill="#8B1B17"/>
<path d="M79 177L85 174L86 176L76 179C77 178 77 177 79 177Z" fill="#F26E29"/>
<path d="M76 180H82L78 181H75L76 180Z" fill="#BA6228"/>
<path d="M95 171H96V174C92 174 89 174 86 176L85 174L93 173L95 172V171Z" fill="#BA6228"/>
<path d="M140 102L146 104C147 105 149 108 147 110L145 112L142 113H140L137 124L136 125L134 124V125C132 125 128 121 127 120V118L126 115L123 113L122 112V111L123 110L121 108H123L126 109H127L129 107L131 105H136L138 103L140 102Z" fill="#FEB433"/>
<path d="M131 105H136C134 107 130 119 132 121L134 124V125C132 125 128 121 127 120V118L126 115L123 113L122 112V111L123 110L121 108H123L126 109H127L129 107L131 105Z" fill="#F99B2B"/>
<path d="M145 108L147 109V110L145 112L142 113H140L141 110C141 109 140 107 142 107L145 108Z" fill="#F99B2B"/>
<path d="M126 109H127V110C128 111 127 112 125 112L121 108H123L126 109Z" fill="#F99B2B"/>
<path d="M141 110H142L143 112H145L142 113H140L141 110Z" fill="#F26E29"/>
<path d="M133 121L137 124L136 125L134 124L132 121H133Z" fill="#D73C18"/>
<path d="M206 153L209 152L210 153C211 159 211 165 214 171L218 170V171L217 172C217 174 217 175 214 176V177L210 178H209V177H199L197 174V172C199 172 199 171 200 170C199 168 198 168 198 165V163L201 162H203L204 161H205L204 156L205 155L206 153Z" fill="#FEB433"/>
<path d="M201 161V162H203L204 161H205L204 156C202 157 201 159 201 161Z" fill="#D73C18"/>
<path d="M198 174C200 172 205 171 207 173V175L206 176L208 177H209H199L197 174H198Z" fill="#D73C18"/>
<path d="M207 173V175L206 176L208 177H209H204C204 176 203 175 205 174H207V173Z" fill="#F26E29"/>
<path d="M197 174H198L201 175L199 177L197 174Z" fill="#D73C18"/>
<path d="M213 176C215 175 214 173 217 172C217 174 217 175 214 176V177L210 178H209V177H208L206 176L207 175V173L213 176Z" fill="#F26E29"/>
<path d="M207 175L209 176H213L214 177L210 178H209V177H208L206 176L207 175Z" fill="#F99B2B"/>
<path d="M201 162L200 167V170C199 168 198 168 198 165V163L201 162Z" fill="#F99B2B"/>
<path d="M206 153V161V160L205 161L204 156L205 155L206 153Z" fill="#F99B2B"/>
<path d="M204 156L205 155L206 160L205 161L204 156Z" fill="#FDC747"/>
<path d="M204 161C205 163 203 163 203 165L202 167H200L201 162H203L204 161Z" fill="#F26E29"/>
<path d="M204 161C205 163 203 163 203 165L202 167C201 165 202 164 203 162L204 161Z" fill="#FDC747"/>
<path d="M205 161L206 160V161L204 166L203 165C203 163 205 163 204 161H205Z" fill="#F26E29"/>
<path d="M203 165L204 166V167L200 169V167H202L203 165Z" fill="#D73C18"/>
<path d="M126 119L130 124L134 126C133 128 128 130 126 129L124.5 129.5L124 126L125 125V123C125 122 124 121 126 119Z" fill="#8B1B17"/>
<path d="M195 175L197 174L199 177H209V178C208 179 205 178 203 180L199 182V183C197 182 193 182 193 180L195 175Z" fill="#8B1B17"/>
<path d="M209 178C208 180 204 181 203 180C205 178 208 179 209 178Z" fill="#F26E29"/>
<path d="M205 183V186L204 187H203L202 186L205 183Z" fill="#F99B2B"/>
<path d="M43 223C46 222 51 224 53 225L49 228H45V224H44L43 223Z" fill="#F99B2B"/>
<path d="M43 223L44 224H45V228L44 231H45L44 233L43 223Z" fill="#BA6228"/>
<path d="M29.0001 250C31.0001 250 35.0001 249 36.0001 251L37.0001 256H40.0001C42.0001 257 41.0001 262 40.0001 264L33.0001 262C27.0001 259 29.0001 256 29.0001 250Z" fill="#F99B2B"/>
<path d="M220 159C219 157 219 152 222 152H225L227 154L230 158L231 159L231.5 161.5L231 163L229 164L228 165H226C223 162 221 162 220 159Z" fill="#8B1B17"/>
<path d="M53 225V226L55 228V233H50C49 232 47 230 45 231H44L45 228H49L53 225Z" fill="#F99B2B"/>
<path d="M53 225V226L55 228L54 229V230C52 231 47 229 45 228H49L53 225Z" fill="#FEB433"/>
<path d="M53 225V226L55 228L54 229L49 228L53 225Z" fill="#BA6228"/>
<path d="M106 169L107 168L108 169L113 171L114 173C113 175 105 175 104 173L106 170V169Z" fill="#8B1B17"/>
<path d="M45 231C47 230 49 232 50 233H55C53 237 53 236 49 236H48C45 236 46 236 44 234V233L45 231Z" fill="#B82417"/>
<path d="M45 231L49 234L48 235V236C45 236 46 236 44 234V233L45 231Z" fill="#B82417"/>
<path d="M198 165C198 168 199 168 200 170C199 171 199 172 197 172V174L195 175L193.5 181L204 183L199 184C199 184 192 183 189 182L190 180L195 169L198 165Z" fill="#B82417"/>
<path d="M162 128L165 131L156.5 137L155.5 134.5L154 131L162 128Z" fill="#F99B2B"/>
<path d="M188 79L201 81C192 88 189 98 181 106C179 109 173 110 171 112C166 114 162 116 158 120L154 128H151C151 128 157 115 158 112L160 106L164 93L163 92L162 83L163 82C165 80 181 75 185 75L188 79Z" fill="#F99B2B"/>
<path d="M191 122L182 125L176 130H173L157 138L154.5 139L151 130V128H154V131L156.555 136.961L165 131L162 128C165 127 165 126 169 126H170L173 129L176 128L181 124L179 122L189 120L191 122Z" fill="#D73C18"/>
<path d="M147 95L149 97L147 98C146 101 150 104 149 106C147 108 149 111 145 112L147 110C149 108 147 105 146 104L147 95Z" fill="#D73C18"/>
<path d="M44 234C46 236 45 236 48 236H49V237L45 238L44 236H45L44 234Z" fill="#8B1B17"/>
<path d="M194 202L190 214V217H187V216L188 214L191 206V201L194 202Z" fill="#F99B2B"/>
<path d="M109 386L100 398L100.5 403C100.482 403.013 95.3093 406.778 90.8975 412.021L90 421V427L86 429.668V416L85 415L87 407L91 407L92.5 401L95 391.5L96 388L101 386L107 385L111 384H114L109 386Z" fill="url(#paint13_linear_1_698)"/>
<path d="M55 242L58 239L63 241L66 245C66 248 67 250 63 251C60 250 61 249 61 247L59 248H55V242Z" fill="#F99B2B"/>
<path d="M55 242H56V244C58 246 57 244 59 245L61 247L59 248H55V242Z" fill="#D73C18"/>
<path d="M63 248H64L63 245V244L66 245C66 248 67 250 63 251C60 250 61 249 61 247L63 248Z" fill="#F99B2B"/>
<defs>
<linearGradient id="paint0_linear_1_698" x1="72.2011" y1="353" x2="490.701" y2="144.5" gradientUnits="userSpaceOnUse">
<stop stop-color="#8B1B17"/>
<stop offset="0.205087" stop-color="#B92F1A"/>
<stop offset="0.444959" stop-color="#EE471E"/>
<stop offset="1" stop-color="#F26E29"/>
</linearGradient>
<linearGradient id="paint1_linear_1_698" x1="117" y1="61.5" x2="254" y2="133.5" gradientUnits="userSpaceOnUse">
<stop stop-color="#EA461E"/>
<stop offset="1" stop-color="#F26E29"/>
</linearGradient>
<linearGradient id="paint2_linear_1_698" x1="176" y1="241" x2="68.5" y2="256.5" gradientUnits="userSpaceOnUse">
<stop stop-color="#EF5D24"/>
<stop offset="0.496153" stop-color="#CF3E26"/>
<stop offset="1" stop-color="#B92F1A"/>
</linearGradient>
<linearGradient id="paint3_linear_1_698" x1="383.5" y1="71" x2="383.5" y2="485" gradientUnits="userSpaceOnUse">
<stop offset="0.403843" stop-color="#F26E29"/>
<stop offset="1" stop-color="#E74A29"/>
</linearGradient>
<linearGradient id="paint4_linear_1_698" x1="324.5" y1="394.8" x2="314.1" y2="395.1" gradientUnits="userSpaceOnUse">
<stop stop-color="#8B1B17"/>
<stop offset="1" stop-color="#BF2F28"/>
</linearGradient>
<linearGradient id="paint5_linear_1_698" x1="466" y1="268.1" x2="469.5" y2="268.4" gradientUnits="userSpaceOnUse">
<stop stop-color="#FEB433"/>
<stop offset="1" stop-color="#F48220"/>
</linearGradient>
<linearGradient id="paint6_linear_1_698" x1="431.1" y1="266.7" x2="434.3" y2="262.4" gradientUnits="userSpaceOnUse">
<stop stop-color="#E22E24"/>
<stop offset="1" stop-color="#B82417"/>
</linearGradient>
<linearGradient id="paint7_linear_1_698" x1="81.7" y1="125" x2="97.6" y2="126.3" gradientUnits="userSpaceOnUse">
<stop stop-color="#FE9F17"/>
<stop offset="1" stop-color="#FEB433"/>
</linearGradient>
<linearGradient id="paint8_linear_1_698" x1="47" y1="195" x2="50.9766" y2="245.113" gradientUnits="userSpaceOnUse">
<stop stop-color="#620D0C"/>
<stop offset="0.149029" stop-color="#A33F20"/>
<stop offset="0.298071" stop-color="#BA6228"/>
<stop offset="1" stop-color="#E58F36"/>
</linearGradient>
<linearGradient id="paint9_linear_1_698" x1="82.883" y1="187.4" x2="74.1432" y2="173.35" gradientUnits="userSpaceOnUse">
<stop stop-color="#8B1B17"/>
<stop offset="1" stop-color="#BA6228"/>
</linearGradient>
<linearGradient id="paint10_linear_1_698" x1="55.3" y1="204.1" x2="46" y2="210.3" gradientUnits="userSpaceOnUse">
<stop stop-color="#B43B19"/>
<stop offset="1" stop-color="#C77A34"/>
</linearGradient>
<linearGradient id="paint11_linear_1_698" x1="110" y1="107.5" x2="110.5" y2="112" gradientUnits="userSpaceOnUse">
<stop stop-color="#620D0C"/>
<stop offset="1" stop-color="#D73C18"/>
</linearGradient>
<linearGradient id="paint12_linear_1_698" x1="112.5" y1="155" x2="111.992" y2="167.7" gradientUnits="userSpaceOnUse">
<stop stop-color="#620D0C"/>
<stop offset="1" stop-color="#D73C18"/>
</linearGradient>
<linearGradient id="paint13_linear_1_698" x1="107.5" y1="404.5" x2="82.5" y2="399.5" gradientUnits="userSpaceOnUse">
<stop stop-color="#8B1B17"/>
<stop offset="1" stop-color="#BA6228"/>
</linearGradient>
</defs>
</svg>
