<svg xmlns="http://www.w3.org/2000/svg" xmlns:xlink="http://www.w3.org/1999/xlink" fill="none" viewBox="0 0 512 512"><defs><path id="f" fill="#FDD153" d="M379 47c2 2 9 9 12 9 3 1 18 7 20 6l9 9 1 16-8-2c0 2 4 2 1 5h-1c-1-1-1-3-3-1v7c2 4 2 6 6 9 3-2 4-6 7-6 3 1 5 3 6 5l6 12c2 3 12 10 13 13h-4c-6-2-9-9-14-14l-1-1v4l7 11 1 4 10-2-4 7 5 4 3 8c2 4 12 19 11 22l-1 1-4 2c-2 0-3-3-4-4-2-4-5-12-8-15v2l-6 4c4 8 11 16 15 23l6 9c0 6-3 16-5 22l-6 7c-2 3-3 4 1 6 3 10 7 19 7 29l-5 3-1-2-4 2v4l-1 2-3-1v-1l-5 1-2 2v2l-1 1-6-6-2-4c-5-4-6-11-13-14l-4-2c-2 7-3 10-7 16l6 25-8 4-2 1-1-1c-5-3-17-29-19-36v-1l-4 1c-5-3-9-7-14-9l-4 1h-6l-4 1v2c0 2 1 2 2 3l4 2c-1 4-3 6-5 9-5 10-10 13-20 18l-9 5v1l-5 3v2l-2 1-1-3-8-19-5-11-7-15-4-11v-21l-9 3-9 1h-2l-2-1v-2l-1-11-1-1-3 6a29.57 29.57 0 0 1-.03 1.15c-.02.23-.06.44-.12.63-.05.19-.14.36-.26.5-.38.48-1.13.72-2.59.72l-6-2 4.2 1.4.8-30.4c0-9 1-28 1-28h-4l-1 5c-1 8-1 7-9 9h-4c-1 2-3 4-5 2v-1l-4 1-1-4 4-2-2-3-1-1-3-4-2-2h-3c2-4 4-14 7-16l7-10 4-5c3-4 7-7 12-9l5-4 17 6h5l2 3h9l16-5 4-1h2v-6c2-2 2-3 4-3h1l3 1 1-2 2-13-1-3c-3-1 0-4 1-6l1-1c2-2 8-3 10-3l17-3c3 0 10-1 12-3l6-4h3l4.5-6-11.5-8-1.5-2.5s1.26-.12 2-.13l8 1.63 5.5-3Z"/><path id="g" fill="#F26E29" d="m270 183 14-4-4 6-10 2v-4Z"/></defs><path fill="url(#a)" d="M118 50.77c3-3 6-7 9-8l12-4 19-6L259 6l25 5.77 76 21 28 6 13 13 10 10 9 9 8 8 27 28 10 10 16 16c3 3 5 6 6 10l3 16a815.83 815.83 0 0 0 12 56l3 15 1 25v16l-4 17c2 11-4 29-4 41l-1 17c-2 7-11 16-14 23l-3 7-10 10-34 37-28 30-15 14c-7 8-18 15-18 15l-6 3-40 8-68 12-22-2a918.04 918.04 0 0 1-108-26l-13-13-34-33c-4-1-15 5-16 2-3-8-3-21-7-29l-9-10-14-14-8-9-4-11-9-48-6-34c-1-9-4-22-3-31l2-16 6-25 9-47 5-19 1-5 3-3 17-16 31-29 7-8 5-7c5-8 8-10 16-15l8-6Z"/><path fill="url(#b)" d="M257 202.27 92 183l5.55-44.98-.2.05H96l.5-5.57L98 122l-2-4.97 3-1.03v-1l.5-2h1.14L106 69.5 125.5 52l70.5-3 63-43-2 196.27Z"/><path fill="url(#c)" d="m388 39.5 32.08 32.78L420 71l8 8 27 28 26 26c3 3 5 6 6 10l3 16a816.42 816.42 0 0 0 12 56l3 15 1 25v16l-4 17c2 11-4 29-4 41l-1 17c-2 7-11 16-14 23l-3 7-10 10-34 37-28 30-15 14c-7 8-17.99 14.99-18 15l-4.5 2-34.5-44.5-75-6V431c4.5-2 3.5-1.5 8.5-3.5l5.5-2 2-.5 7-1 5-12c3-7 5-8 12-10l-1-11c0-4 1-4 4-6v-1l3-2 4-2 3-1c1-8-2-21-1-29s11-15 15-21c5-8 8-18 13-28-4-3-7-2-11-1l-11 3c-4-3-5-5-7-9v-1l2-1v-2l5-3v-1l9-5c10-5 15-8 20-18 2-3 4-5 5-9l-4-2c-1-1-2-1-2-3v-2l4-1h6l4-1c5 2 9 6 14 9l4-1v1c2 7 14 33 19 36l1 1 2-1-1-2c4 0 6 0 9-2l-6-25c4-6 5-9 7-16l4 2c7 3 8 10 13 14l2 4 6 6 1-1v-2l2-2 5-1v1l3 1 1-2v-4l4-2 1 2 5-3c0-10-4-19-7-29-4-2-3-3-1-6l6-7c2-6 5-16 5-22l-6-9c-4-7-11-15-15-23l6-4v-2c3 3 6 11 8 15 1 1 2 4 4 4l4-2 1-1c1-3-9-18-11-22l-3-8-5-4 4-7-10 2-1-4-7-11v-4l1 1c5 5 8 12 14 14h4c-1-3-11-10-13-13l-2.62-5.23L256.5 120 259 6l129 33.5Z"/><path fill="#FEB433" d="m462 277-1 1v1l3-1h1v-3c-2 0-2 0-3 2Z"/><path fill="#F26E29" d="m209 196.5 86-1.5 7.42 35.47 118.08-8.97L440 281l-43 7.5-78 14.5-1.64-1.17.14.67-128.5-3-116-24L92 183l117 13.5Z"/><path fill="url(#d)" d="m209 196.5 86-1.5 7.42 35.47 118.08-8.97L440 281l-43 7.5-78 14.5-1.64-1.17.14.67-128.5-3-116-24L92 183l117 13.5Z"/><path fill="#FDC747" d="m484 275 3 1h1l1 1-1 3h-3c-1 2 0 4 2 4 2 1 1 2 1 4l4 1h1v-2l1-2c4-2 4 3 8 3 2 11-4 29-4 41l-1 17c-2 7-11 16-14 23h-1l-2 1-4-3-5-5-7 6-3 4-4 3c-3-3 2-27 2-32l-7-1h-1l3-4c10-10 15-23 22-34l5-4-3-1-2-4c-1-3-2 0-3-3l3-1 3-1v-2l-2-1c2-1 0-2 1-4h-2l-1-1 1-2c1-3 5-4 8-5Z"/><path fill="#FDC747" d="m484 275 3 1h1l1 1-1 3h-3c-1 2 0 4 2 4 2 1 1 2 1 4v5c-1 3-5 5-7 1l1-3-2-1h-1v-2l-2-1c2-1 0-2 1-4h-2l-1-1 1-2c1-3 5-4 8-5Z"/><path fill="#F26E29" d="M478 283c2 0 5 0 5 3v3-2h-3c-1-1 1-2-2-4Z"/><path fill="#F99B2B" d="M487 276h1l1 1-1 3v-1l-2-1 1-2Z"/><path fill="#BA6228" d="m475 358 7 10v1l-2 1-4-3-5-5 4-4Z"/><path fill="#F26E29" d="m488 288 4 1v11c-1 3-2 4-1 8h-1c-3-1 0-6 0-7l-2-1h1l1-3-1-4h-1v-5Z"/><path fill="#F99B2B" d="m488 288 4 1v3c-2 2 0 6-2 6v-1l-1-4h-1v-5Zm4 1h1v3h-1v-3Zm-40 53 7 1c0 5-5 29-2 32l-3 2-1-1-8-1 1-1 6-32Zm0-43 2 2h3l14 1-3 3-1 2-16 1v-1c-1-2-4-1-5-3h3l-1-2 1-1 3-2Z"/><path fill="#B82417" d="M451 308v-3h17l-1 2-16 1Z"/><path fill="#D73C18" d="m452 299-.5 2.5-.5 3.5-2-1-17-23.5 3-3.5 1 1 3 1 3 2.5 3 4 3 5.5 4 8Z"/><path fill="#8B1B17" d="m431 281.5 1-1 9 7.5 2 5 5 9 1 2 2 1v3c-8 2-7-4-10-10-2-2-4-8-7-10l-3-6.5Zm19 77-3.92 16.63 6.92.87-2 2-6.5.5.5-3.5 3-15 3-18h1l-2 16.5Zm30 11.5-4-3-5-5-7 6-1.3 1.74c1 1 3.3 6.26 5.3 7.26l12-7Z"/><path fill="#FDC747" d="M339 364c3 2 5 3 4 7l-5 14-6 17-6 1-8-1 3-22c1-3 8-7 10-9l8-7Z"/><path fill="url(#e)" d="M321 380h2c1 2-2 20-2 23h5l-2 2.5-5 1-1-5 2-17.5 1-4Z"/><path fill="#8B1B17" d="M321 380h2c1 2-2 20-2 23h5l-2 2.5-5 1-1-5 2-17.5 1-4Z"/><path fill="#F26E29" d="m325 380 4 1-3 22h-5c0-3 3-21 2-23h2Z"/><path fill="#FEB433" d="M325 380c0-3 5-4 8-5l8-7c1 3-8 10-11 11l-1 2-4-1Zm111-102v-2l3-3 2 2 4 5 4-5c2 1 2 3 3 5v1l2 7 2-4 2-2 1-1 2-1v-2 1l3-1 1 1c0 2-2 11-1 13h6l2-1 1 1c1 3 2 0 3 3l2 4c-2 1-5 4-6 3l-1-1v1l-14-1h-3l-2-2c-3-6-7-16-13-20l-3-1Z"/><path fill="#F99B2B" d="m461 279 3-1 1 1c0 2-2 11-1 13l-1 2h-1l1 2-3 1-3-1-2-4-1-4 2-4 2-2 1-1 2-1v-1Z"/><path fill="#B82417" d="m459 281 2-1-2 13 3 1 1 2-3 1-3-1-2-4-1-4 2-4 2-2 1-1Z"/><path fill="#D73C18" d="M458 282c-1 3-1 8-3 10l-1-4 2-4 2-2Z"/><path fill="#F26E29" d="m472 291 1 1c1 3 2 0 3 3l2 4c-2 1-5 4-6 3l-1-1-4-3c0-1 1-3-2-3h-1v2h-4l3-1-1-2h1l1-2h6l2-1Z"/><path fill="#F99B2B" d="M460 297h4v-2h1c3 0 2 2 2 3-2 0-10 3-11 0l1-2 3 1Z"/><path fill="#FEB433" d="M449 275c2 1 2 3 3 5-2 1-3-4-3-5Z"/><path fill="#F26E29" d="M483 267h1l5 2c9 5 7 2 17 2l-4 17c-4 0-4-5-8-3l-1 2v2h-1l-4-1c0-2 1-3-1-4-2 0-3-2-2-4h3l1-3-1-1v-4c-1-2-7 0-5-5Z"/><path fill="#D73C18" d="m494 285-1 4h-1l-4-1c0-2 1-3-1-4l1-1 6 2Zm-2-10c1-1 3-2 4 0l-2 5-1 1c-1 1-3-1-5-1l1-3h4v-1l-1-1Z"/><path fill="#FEB433" d="M471 258h4l1 2c-1 5-4 13-2 18v2c2 0 1 1 1 2l1 1h2c-1 2 1 3-1 4l2 1v2l-3 1-3 1-1-1-2 1h-6c-1-2 1-11 1-13 2-2 6-18 6-21Z"/><path fill="#D73C18" d="M474 280c2 0 1 1 1 2l1 1h2c3 2 1 3 2 4h3v2l-1 2-1 3c2 4 6 2 7-1h1l1 4-1 3h-1c-3-3-4-2-7 0l-3-1-2-4c-1-3-2 0-3-3l-1-1 1-2 1-9Z"/><path fill="#F26E29" d="M476 283h2c-1 2 1 3-1 4l-1-4Z"/><path fill="#F99B2B" d="m469 292 2-1c1-2-2-11 1-11h2l-1 9-1 2-2 1h-1Zm11-2v-1h3l-1 2-2-1Z"/><path fill="#FEB433" d="m494 256 12-1v16c-10 0-8 3-17-2l2-10c0-3 2-1 3-3Z"/><path fill="#F99B2B" d="m467 259 4-1c0 3-4 19-6 21l-1-1h1v-3l2-16Z"/><path fill="#FDC747" d="m484 260 10-4c-1 2-3 0-3 3l-2 10-5-2c-1-2 2-4 0-7Z"/><path fill="#D73C18" d="m484 273-1-1c-2-1-3-4-3-7l1 2h2c-2 5 4 3 5 5v4h-1l-3-1v-2Z"/><path fill="#F99B2B" d="M443 265v2h-1l-1 2h-2v-1l-2 1v5l2-1h1l1 2-2-1.5-3 2.5v2l-1-1 1-7v-2l2-2 5-1Z"/><path fill="#FEB433" d="M439 269h2l1-2h1l1 1c1 1 0 6-1 7-1-1-4-4-4-6Z"/><path fill="#F99B2B" d="M484 260c2 3-1 5 0 7h-3l-1-2 4-5Z"/><path fill="#D73C18" d="M447 265c0 2 0 3-3 3l-1-1v-1l3 1 1-2Zm18-38c1 7 1 16 4 22l4-1-5 3-2 1-1-10c-1-3-1-13 0-15Z"/><path fill="#FEB433" d="M469 225h2l5.5 19.5-3 1.5-2.5-8-2-13Z"/><path fill="#F99B2B" d="m461 280-2 1-1-1 1-1 2-1v2Zm10-42 2.25 7.2a1.37 1.37 0 0 1-.25-.2v3l-4 1c-3-6-3-15-4-22 2-1.5 4-2 4-2l2 13Z"/><path fill="#FEB433" d="m452 147 3 1v2h-1c-1 0-3-2-2-3Z"/><path fill="#F99B2B" d="m194 135-1 1-2-1.5-2-.5 2-1 5-4-2 6Zm178-70c3.91-2.93 2.5-.98 4.5-6l-13-10.5c-3 3-6.5 2.5-9.5 4.5v1l7 4-1 4 2 3-6 1-5 6c3 0 10-1 12-3l6-4h3Z"/><use xlink:href="#f"/><use xlink:href="#f"/><path fill="#FDC747" d="M257 152s-1 19-1 28l-.8 30.4-4.2-1.4v-11h-4l-.48-.23-1.47-.69a99.84 99.84 0 0 0-8.92-3.62l-1.24-.36a8.4 8.4 0 0 0-1.08-.21c-.4-.05-.69-.01-.81.11v5l1 5v4l1 1-1 1-2 1-2-1-2-3v-2h-1c-2-3-3-1-5 0l-1 1-6 3-1 1c-1.28 2.56-2.02 5-5 6l-3 4-3 1h-6l-4-1-3 1c0-2-1-3-3-3h3v-3l4-12-3-1c2-2 11-1 13-1 3 0 3-1 3-4l-1-6-2-3 1-1v-3l8-4-4-1h1l4-1v-1c3-1 3-2 3-4l1-1v-1l8-1-1-1c0-1 0-2 2-3h1l1-1 1 4 4-1v1c2 2 4 0 5-2h4c8-2 8-1 9-9l1-5h4Z"/><path fill="#F26E29" d="m229 210.5 4 2.5v-2l-1-1-2-3v-6l-2-2c-2 0-9 1-11 3l-1 2.5-2 4.5 1-1 7-3 5-1h1v2l1 4.5ZM479 290l-1 3-2-2 3-1Zm-272-72-1 1-3 1h-6l-4-1-3 1-3-3h20.5l-.5 1Z"/><path fill="#D73C18" d="m218 171 1 1h2c0 2-6 6-8 7l-4-1h1l4-1v-1c3-1 3-2 3-4l1-1Zm11-7 1 4 4-1v1l-8 1-1-1c0-1 0-2 2-3h1l1-1Z"/><path fill="#FEB433" d="M227 165h1v2l-3 1c0-1 0-2 2-3Z"/><path fill="#D73C18" d="M205 186c2 2 4 5 4 8l-2 2-1-6-2-3 1-1Z"/><path fill="#F99B2B" d="m217 202-1 2.5-2 4.5-3.5 8-4.5 2 1.5-2 3.5-6 2-3 2-4-5-3 7 1Z"/><path fill="#F26E29" d="M338 242c4 3 16 0 21 1h5c5 1 11 5 14 8l4-2 12 27 7 14-2 2-1-2-19-36v-1l-4 1c-5-3-9-7-14-9l-4 1h-6l-4 1v1c-2-2-3-1-5 0l-1-1c-3 0-5-2-8-4l-5-4-1 1-5-7c0-2 2-3 4-4l12 13Z"/><path fill="#8B1B17" d="M375 254c-5-3-9-7-14-9l-4 1h-6l-4 1v2c0 2 1 2 2 3l7-1 2.5-1s7.5 5 9.5 7l9 4 3 3c3 5 13 26 13 26l3 5 2-2 1-1-1-2-19-36v-1l-4 1Z"/><path fill="#F99B2B" d="m432 254 1-1 3 1v-1c3 1 14 4 15 6l1 2-3 1-2 3-1 2-3-1v-1l-5 1-2 2v2l-1 1-6-6c3-4-3-7-1-10l1-1 2-1h1v1Z"/><path fill="#B82417" d="M431 253h1v1l2 2h-1v3c0 1 0 2 2 3h5l1 2h1l1 1-5 1-2 2v2l-1 1-6-6c3-4-3-7-1-10l1-1 2-1Z"/><path fill="#D73C18" d="M436 262h4l1 2h1l1 1-5 1-2 2-2-4 3-1-1-1Z"/><path fill="#8B1B17" d="M431 253h1v1l2 2h-1v3l-1-1-1 1h-1l-2-4 1-1 2-1Z"/><path fill="#F26E29" d="m431 259 1-1 1 1c0 1 0 2 2 3h1l1 1-3 1-3-5Z"/><path fill="#B82417" d="m441 261 2-1 4 3v2l-1 2-3-1v-1l-1-1h-1l-1-2v-1h1Z"/><path fill="#F99B2B" d="M442 264h-1l-4-1-1-1h4v-1h1l1 3Z"/><path fill="#D73C18" d="m432 254 2 2 1 2 4 2h4l-2 1h-1v1h-5c-2-1-2-2-2-3l-1-1-1 1-1-2 2-3-1-1h1v1Z"/><path fill="#F99B2B" d="m441 141 5 6c6 6 10 13 12 21l2 5h1l-4 2c-2 0-3-3-4-4-2-4-5-12-8-15l-3-4-3-7 2-4Z"/><path fill="#D73C18" d="m415 237 8 8a35.06 35.06 0 0 1 4 5l1 1 1 3-1 1c-2 3 4 6 1 10l-2-4c-5-4-6-11-13-14l-4-2 1-1 2-5 2-2Z"/><path fill="#8B1B17" d="m415 237 8 8a35.06 35.06 0 0 1 4 5l-8-3c-3-1-4-6-6-8l2-2Z"/><path fill="#B82417" d="m411 244 2-5c2 2 3 7 6 8l8 3 1 1-3-1-4-1-7-5h-3Z"/><path fill="#F26E29" d="m251 129 2-1h1l1 1v14l10 3 1 1c-2 3-5 2-8 3v-1l-2 1-2-1-1 2h-1c-2 0-4-2-4-5l-1-9h4l1-3c0-2 1-2-1-5Z"/><path fill="#8B1B17" d="M247 137h4v8l7 4-2 1-2-1-1 2h-1c-2 0-4-2-4-5l-1-9Z"/><path fill="#D73C18" d="m251 129 2-1h1l1 1-1 1c-2 1-2 2-2 4 0-2 1-2-1-5Z"/><path fill="#F26E29" d="M418 231c4 5 10 14 16 15v3l-1 3 3 1v1l-3-1-1 1-1-1-2 1-1-3-1-1-1-1-3-4-8-8 3-6Z"/><path fill="#B82417" d="M246 150c0-2 0-3 2-4 0 3 2 5 4 5h1l1-2 2 1 2-1v1l-1 2h-4l-1 5c-1 8-1 7-9 9h-4c2-3 3-4 3-8h2l1 1 1-3v-6Z"/><path fill="#D73C18" d="m244 158 1 1v4l-5 2 3 1h-4c2-3 3-4 3-8h2Z"/><path fill="#F99B2B" d="m244 158 1 1v4c-1-1 0-4-3-5h2Z"/><path fill="#D73C18" d="M248 156c2 1 1 5 0 6v-6Z"/><path fill="#FEB433" d="m234 153 2 4 5-1 2 1 1-2v3h-2c0 4-1 5-3 8-1 2-3 4-5 2v-1l-4 1-1-4 2-1v-4l3-3v-3Z"/><path fill="#F26E29" d="m269 214 21-4v18c10 13 15 33 23 47l5 12 1-1v1l-5 3v2l-2 1-1-3-8-19-5-11-7-15-4-11v-1l-2-.5c-1-2-1-15-1-15l-5-1.5-10 1h-2l-2-1-2-14 1-2 3-2 2 16Z"/><path fill="#F99B2B" d="m236 126 4-5c3-4 7-7 12-9l-2 2-5 6-7 9-4 6-5 2v-1l7-10Z"/><path fill="#D73C18" d="m231 150 2-1c3 4 4 4 8 7l-5 1-2-4v3l-3 3-1-1-3-4-2-2h-2l1-1 7-1Z"/><path fill="#D73C18" d="m223 152 1-1 7-1c0 2-1 1-3 2l2 1c-1 2-2 1-3 1l-2-2h-2Z"/><path fill="#F99B2B" d="M225 152h3l2 1c-1 2-2 1-3 1l-2-2Z"/><path fill="#F99B2B" d="m230 153 1 2-1 3-3-4c1 0 2 1 3-1Zm93-74 4 4h-1v3l-2 15h-3l2-13-1-3c-3-1 0-4 1-6Zm80 10c2-3 5-5 10-4 0 2 4 2 1 5h-1c-1-1-1-3-3-1v7c-3-2-5-3-7-7Z"/><path fill="#8B1B17" d="m328 239 5 4c3 2 5 4 8 4l1 1-6 4-1 1-8-13 1-1Z"/><path fill="#F26E29" d="M321 101h3l2 1 9 12-3 2c-1-2-6-10-8-9 2-4 0-4-3-4h-1l1-2Z"/><path fill="#D73C18" d="M321 101h3c-1 2-1 2-3 2h-1l1-2Z"/><path fill="#FDC747" d="m323 79 1-1c2-2 8-3 10-3-2 2-8 1-10 4l1 1c5 5 6 3 3 10l-2 12-2-1 2-15v-3h1l-4-4Z"/><path fill="#F99B2B" d="m246 136 1 1 1 9c-2 1-2 2-2 4v6l-1 3-1-1v-8l2-14Z"/><path fill="#B82417" d="m246 136 1 1 1 9c-2 1-2 2-2 4v-14Z"/><path fill="#F99B2B" d="m244 150 2 6-1 3-1-1v-8Z"/><path fill="#FEB433" d="M316 102h1l3 1h1c3 0 5 0 3 4v-1l-7-1h-2v-1h-1c-1 2 0 5-2 6v-5c2-2 2-3 4-3Z"/><path fill="#D73C18" d="m429 118 7 11 1 4h-1c-3-4-6-10-7-15Z"/><path fill="#FDC747" d="M229 136v1l5-2-4 3-1-1h-1l-3 9 1-1v5c2 0 5-2 7-1l-2 1-7 1-1 1h-1c2-4 4-14 7-16Z"/><path fill="#D73C18" d="M324 107c2-1 7 7 8 9l-2 1-3-6-3-4Z"/><path fill="#FDC747" d="M430 115c5 2 7 9 12 13h1l-1-2 6 3h-4c-6-2-9-9-14-14Z"/><path fill="#F99B2B" d="M284 119h1c2 3-2 4-2 6l-1 1v-1l-1-4 3-2Z"/><path fill="#B82417" d="m279 126 3-1v1c-2 2-5 4-7 2l-1-1 5-1Z"/><path fill="#F26E29" d="M312 110c2-1 1-4 2-6h1v1c2 4-1 6-5 6h2v-1Z"/><path fill="#D73C18" d="m250 131 1-2c2 3 1 3 1 5l-1 3h-1v-6Z"/><path fill="#FEB433" d="m254 128 2 1c2 2 0 10-1 11v-11l-1-1Z"/><path fill="#F99B2B" d="m246 136 4-5v6h-3l-1-1Z"/><path fill="#FEB433" d="M281 117h9l-3 1-2 1h-1l-3-2Z"/><path fill="#F99B2B" d="m279 126-1-4 3-1 1 4-3 1Zm6-7 2-1c1 3-2 6-4 7 0-2 4-3 2-6Z"/><path fill="#F26E29" d="m271 125 8 1-5 1-2-1-1-1Z"/><path fill="#FDC747" d="m272 126 2 1 1 1h-3v-2Z"/><path fill="#D73C18" d="m442 152 3 4c3 3 6 11 8 15 1 1 2 4 4 4h1c-1 2-3 3-4 1l-9-18v-1l-3-4-1-1-3 1c-2-1 0-6 1-8l3 7Z"/><path fill="#F99B2B" d="M272 128h-2l1-3 1 1v2Z"/><path fill="#D73C18" d="M284 179c2 2 12 15 12 15l-4.5.5L282 182l2-3Z"/><use xlink:href="#g"/><use xlink:href="#g"/><path fill="#D73C18" d="m270 187 10-2 3 4 3 4 5.5 1.5-5.5.5-15 2-1-10Z"/><path fill="#8B1B17" d="m282 182 9.5 12.5-4 .36L286 193l-3-4-3-4 2-3Z"/><path fill="#F99B2B" d="m118 51 8 1-19 17 3 2v5l1 2 1-1c1-2 3-2 5-3l3-2 6 1-2-7 1-2 7-1 4 5c3-3 6-2 10-3l3-1 13 3 6 1c4-2 8 3 7 6-2 2-6 0-7-1-3 2-17 3-21 5h-4c3 3 2 5 4 8l4 3-1 2v1l-2 1-1 2-1 9-6-2-2 1-2 2h-5l-2 2-2 2h-1l-3-1h-4l1-1-4-1-1-2-11 3 1 3h-9v-1l-5-1c2.6-5.21 4.93-10.55 7-16l-3-10h-1c0-4-2-4-5-3l5-7c5-8 8-10 16-15l8-6Z"/><path fill="#F99B2B" d="m118 51 8 1-19 17 3 2v5l1 2 1-1v6h6c1-2 3-1 4-2l3 1-1 1v1l1 1-2 2c0 2 0 3 2 4l-2 1c-2 0-2 1-3 2h-1l-1 2h-2l-2 7 1 1 4 4-14 2h-9v-1l-5-1c2.6-5.21 4.93-10.55 7-16l-3-10h-1c0-4-2-4-5-3l5-7c5-8 8-10 16-15l8-6Z"/><path fill="#F99B2B" d="m122 81 3 1-1 1v1l-5 1h-1v-2c1-2 3-1 4-2Z"/><path fill="#FEB433" d="M123 92c4 1 6-2 11-2v6l4 7-2 2h-5l-2 2-2 2h-1l-3-1h-4l1-1-4-1-1-2-1-1 2-7h2l1-2h1c1-1 1-2 3-2Z"/><path fill="#FDC747" d="M123 92c4 1 6-2 11-2v6l-1 2h-11l-1-1 2-2-3 1v-2c1-1 1-2 3-2Z"/><path fill="#F99B2B" d="M134 92v4l-1 2h-11l-1-1 2-2c4-1 5 2 8 1l3-4Z"/><path fill="#8B1B17" d="m134 96 4 7-2 2h-5l-2 2-1-1v-3l-1-1 1-2-3-1v-1h8l1-2Z"/><path fill="#B82417" d="m134 96 4 7-2 2h-5l2-3c1-1 2-2 1-4h-1l1-2Z"/><path fill="#8B1B17" d="M128 100c6-1 5 6 0 4v-1l-1-1 1-2Z"/><path fill="#D73C18" d="m125 99 3 1-1 2 1 1v3l1 1-2 2h-1l-3-1h-4l1-1-4-1 2-1h1c3-1 6-2 6-5v-1Z"/><path fill="#F99B2B" d="m125 99 3 1-1 2 1 1c0 3-1 2-3 3l-7-1h1c3-1 6-2 6-5v-1Z"/><path fill="#B82417" d="m128 106 1 1-2 2h-1l-3-1 5-2Z"/><path fill="#F99B2B" d="m118 96 1-2h1v2l3-1-2 2 1 1-1 1-2-2-1-1Z"/><path fill="#F26E29" d="M122 98h3v1h-4l1-1Z"/><path fill="#FDC747" d="m114 103 5 2h-1l-2 1-1-2-1-1Zm5-6 2 2h4v1h-6v-3Z"/><path fill="#FEB433" d="M138 84c0-2 1-6 3-7l2 1c3 3 2 5 4 8l4 3-1 2v1l-2 1-1 2-1 9-6-2-2 1-4-7v-6l4-6Z"/><path fill="#D73C18" d="M134 92v-2c2 1 10 10 6 12l-2 1-4-7v-4Z"/><path fill="#F99B2B" d="M148 93v-3l2 1v1l-2 1Z"/><path fill="#B82417" d="M118 83v2l-6-1 1-1h5Zm7 2 2 2v3l-2 1c-2-1-2-2-2-4l2-2Z"/><path fill="#F99B2B" d="M134 90c0-1 2-8 4-7v1l-4 6Z"/><path fill="#F26E29" d="M123 87c0 2 0 3 2 4l-2 1c-2 0-2 1-3 2h-1c1-2 2-6 4-7Zm-11-4h1l-1 1-3-1 2-5 1-1v6Zm-2-7h-5l4-1 1-2v3Zm14 7h3v2h1l2-3 1 3v1l-6-1-1-1v-1Zm-6-6 1 3-1 1-1-1 1-3Z"/><path fill="#D73C18" d="M119 85c1-3 3-2 5-2v1l-5 1Zm6 0 6 1-4 4v-3l-2-2Z"/><path fill="#D73C18" d="m125 82-3-1c-1 1-3 0-4 2h-4l2-2 1 1 2-2 2-1h4v3Zm7-11c2 1 1 3 2 5l4-1c0 2-1 2-2 3v2l-2-1-2 2-1-6 1-4Z"/><path fill="#FEB433" d="M163 82c2-2 18-7 22-7l3 4 13 2 10 1 2 6 1 2c-4 6-10 10-14 17-3 4-6 13-9 15l-3 1-6 2-6 5h-3v-1h-1c-2-1-2-2-2-3h-1c-4 0-4 1-7 2l-8 3v-3l4-8 5-16h-1c0-3 4-10 4-15v-2l1 1-4-6Z"/><path fill="#FDC747" d="m213 88 1 2c-4 6-10 10-14 17-3 4-6 13-9 15l-2-2 5-8c3-7 6-13 12-18l7-6Z"/><path fill="#F99B2B" d="m170 126 9-4 2 2-5 4-3 1-3-3Z"/><path fill="#FEB433" d="M196 129c3-1 8 1 10 3 1 3-7 3-7 4l1 2-7-2 1-1-1-1-2-1 5-4Z"/><path fill="#D73C18" d="m191 133 2 1 1 1-1 1 7 2 .5 1c-1 3-4.5 2.5-7.5 3l-4-1c-3-1-2-2-2-5l2-2 2-1Z"/><path fill="#8B1B17" d="M190.5 136.5s9 4 8.5 4.5-2.5 1-4 1h-2l-4-1c-3-1-2-2-2-5h2l1.5.5Z"/><path fill="#B82417" d="m319 87 3-2 1 3-2 13-1 2-3-1 1-3c2-4 0-8 1-12Z"/><path fill="#F99B2B" d="M233 193c.5-.5 3.5.5 3.5.5L235 202h2l5 1 1.5 6c0 2-2.5 3-4.5 4h-6v-2l-1-1 2-1 1-1-1-1v-4l-1-5s-.5-4.5 0-5Zm14 5h4v11h-4v-11Zm10 13c3 0 3-1 3-3l1 6-2.5 1.5H256V212l1-1Z"/><path fill="#D73C18" d="m315 89 4-2c-1 4 1 8-1 12l-1 3h-1v-1c1-3 0-9-1-12Zm-9 23 5-8 1 1v6h-2l-4 1ZM120 72h-1 3l1.22-5.67.78-.33 2 7-6-1Z"/><path fill="#FEB433" d="m288 99-1 10h3v1l-1 2c-1 2-5 1-4-1l1-11 1-4 1 3Zm9-6-1 17h-3l-1-2h-1l1-16 5 1Z"/><path fill="#B82417" d="m290 110-1 2c-1 2-5 1-4-1l1-11 1-4 1 3-1 10h3v1Z"/><path fill="#F99B2B" d="M288 99v1l3-1 1-7-1 16h1l-2 1h-3l1-10Z"/><path fill="#D73C18" d="m292 108 1 2h-3v-1l2-1Z"/><path fill="url(#h)" d="m86 118 5-10 5 1v1h4v2l-1 3v1l-3 1 2 5-2 16c0 2-6 3-7 5l-1 1h-1l-6-16 5-10Z"/><path fill="#8B1B17" d="M96 171h-1v1l-2 1-8 1-6 3c-2 0-2 1-3 2v1l-1 1h-2l-1 1-5 3-15 11 1 1v1l1 2v1l2 8c3-5 14-14 19-18h2l5-4c3-4 8-6 11-8l6-4h-1l-2-1v-3Z"/><path fill="#BA6228" d="m28.5 247 3.5-.5v-26l-1.5-3L32 205l10-11.5 8 4.5h1l1-2 21-15 6-24.5 4.5-8.5 3.5-4-6-16 12-24 5-12-3-10-1-8.5-6 6.5-12.5 14.5-10 15.5H63l2.5 3.5-22 37-18 34.5-1.5 32.5 1.5 24.5 3 5Z"/><path fill="url(#i)" d="m50 198-3 4-5-1-5.5 5-3 8.5 3.39 8.47.11.03 1-2.5h1.5L39 224l-1 1-.65 1.95c-1.3 3.9-.98 3.8 1.65 9.05.98 1.96.04 4.87-.93 6.87L38 243l-1 2-3 1v-.01l-1 .01-1 .5V233l-.96-11.96L31 221l-.5-2.5V217l1.5-12 9-11 1-.5 8 4.5Z"/><path fill="url(#j)" d="M78 184c-1 2-8 5-10 6-5 3-9 6-15 7v1l1 2v1h-1c-2-1 0-1-2-3l1-2 15-11 6-4h5v3Z"/><path fill="url(#k)" d="m52 196 1 1v1l1 2v1l2 8-1 4v1l-3 3-2 1h-1v-2l-1-4h-1c0-4 2-11 4-14l1-2Z"/><path fill="#BA6228" d="M50 198h1s-3.5 10-3.5 14H46c-2-2 2-12 4-14Z"/><path fill="#8B1B17" d="m51 198-3 14h-.5c0-4 3.5-14 3.5-14Zm114 63v39.5l24.5 27.5H203l22 2 4 5 1 13 12 28 72 3-8 6-5 4.5v14l-9.5 5L285 426l-7.5 1.5L261 433h-3.5l-5.5-2-16.5-46 1.5-10-10-26-2-9.5-4-3-17.5-4.5-17.5 4.5-15-14-12-14 1-11.5v-15.5l4-21.5 1 1Z"/><path fill="#FEB433" d="M330 299.88c4-1 7-2 11 1-5 10-8 20-13 28-4 6-14 13-15 21s1 29 1 29l-3 1-4 2-3 2v1c-3 2-4 2-4 6l1 11c-7 2-9 3-12 10l-5 12-7 1-16 6-4-125V304l62-1 11-3.13Z"/><path fill="#FDC747" d="m256 234 1 70 62-1-3.5-3.5L285 232h-4l-25 2Z"/><path fill="#BA6228" d="M40 271c3-1 4-4 7-6h3c-2 3-1 9 1 11l5 1c5 1 5 8 6 12l1 5 19 15c2 1 3 15 7 18 8 7 19 13 28 18l-8 31-2 8v1l-6 1-1 3-2 12-1 4-5 2-1 4-1 10v6l-6 4s-15 5-16 2c-3-8-3-21-7-29l-1-7c-2-11-3-24-6-35l-2-7c-2-6-4-8-8-14-2-2-5-12-6-16l-7-17c0-7 6-21 7-29-2-2-2-2-1-4 1-1 1-4 3-4Z"/><path fill="#F99B2B" d="m202 226 6-1 15-2v5c2 4 6 7 10 7l4-1c8 4 10 2 19 0v19l1 36v17-2l-42-4.5-28-2.5-22-2v-34l-1-1 12-9 6-7c3-4 6-6 6-11 0-2 1-3 3-4l11-3Z"/><path fill="#F26E29" d="m165 295 50 4.5 42 4.5 4 127h-3l-4-1s-16-42-17-47l5-7-12-27v-1l-1-13-4-5-22-2-15 4-7-7c-6-7-10-13-17-19l1-11Z"/><path fill="#8B1B17" d="m105 110 7-1h6v1l-17.5 3 .5-3h4Z"/><path fill="#F26E29" d="m101.18 108 9.05-1 14.77-1-3.5 2-3.5 1-21.5 2-.5-1v-1l5.18-1Z"/><path fill="#B82417" d="m122 112 1 1 3 2-1 1v1h-7v-4 1l4-2Z"/><path fill="#B82417" d="m123 113 3 2-1 1-4-2 2-1Z"/><path fill="#FEB433" d="m116 120 2-2 4 2-1 3-4-2-1-1Z"/><path fill="#D73C18" d="m122 120 2-1-1 6-2-2 1-3Z"/><path fill="url(#l)" d="m101.93 109.5 8.82-.5H118l3-1 3 2.5-6 1.5-20 1.5-1.25-2v-1l5.18-1Z"/><path fill="#F99B2B" d="M96 110h4v2l-1 3v1l-3-6Zm21 11 4 2 2 2h1v1l.5 3.5 1.5-.5v3c0 2-1 7-3 9l4 8c-1 3-2 9-4 11l-9-4c-4-2-9-2-13-1l-4 1 5 3 2 1-2 1-2 4 6-2v7l-2 3h-2v1l-4 1-2-1v-3h-1v1l-2 1a16 16 0 0 0-7.45.8l-.55.2-6 3c-2 0-2 1-3 2v1l-1 1h-2l1-6 4-14c1-5 4-13 9-17h1l1-1c1-2 7-3 7-5 6-2 9-9 13-13l7-5 1 1Z"/><path fill="#F99B2B" d="m120 164-2 6-2 1h-3l-5-2 6-8 .5-.5 3 .5 3 .5 1-.5 1.5-1-3 4Z"/><path fill="url(#m)" d="M102 159v-1c2-1 12 1 13 3l-4 4-3 4h-2v-6l-6 2 2-4 2-1-2-1Z"/><path fill="#B82417" d="M92 171h3v1l-2 1a16 16 0 0 0-8 1l-6 3a39 39 0 0 1 13-6Z"/><path fill="#F99B2B" d="m103 171 3-4v3l-2 3h-2l1-2Z"/><path fill="#F26E29" d="m103 171-1 2v1l-6-2v-1h7Z"/><path fill="#F99B2B" d="M50 265h3c2 1 2 4 4 6 1 2 10 4 11 5 3 5 3 12 5 18l11 7 9 7 5 17 11 7 16 10-3 10-5 19-3 13h-3l-4 1v-1l2-8 8-31c-9-5-20-11-28-18-4-3-5-17-7-18l-19-15-1-5c-1-4-1-11-6-12l-5-1c-2-2-3-8-1-11Z"/><path fill="#8B1B17" d="m79 177 6-3 1 2 1 2-5 2-4 1h-3l1-1v-1c1-1 1-2 3-2Z"/><path fill="#F26E29" d="m79 177 6-3 1 2-10 3c1-1 1-2 3-2Z"/><path fill="#BA6228" d="M76 180h6l-4 1h-3l1-1Zm19-9h1v3c-4 0-7 0-10 2l-1-2 8-1 2-1v-1Z"/><path fill="#FEB433" d="m140 102 6 2c1 1 3 4 1 6l-2 2-3 1h-2l-3 11-1 1-2-1v1c-2 0-6-4-7-5v-2l-1-3-3-2-1-1v-1l1-1-2-2h2l3 1h1l2-2 2-2h5l2-2 2-1Z"/><path fill="#F99B2B" d="M131 105h5c-2 2-6 14-4 16l2 3v1c-2 0-6-4-7-5v-2l-1-3-3-2-1-1v-1l1-1-2-2h2l3 1h1l2-2 2-2Zm14 3 2 1v1l-2 2-3 1h-2l1-3c0-1-1-3 1-3l3 1Z"/><path fill="#F99B2B" d="M126 109h1v1c1 1 0 2-2 2l-4-4h2l3 1Z"/><path fill="#F26E29" d="M141 110h1l1 2h2l-3 1h-2l1-3Z"/><path fill="#D73C18" d="m133 121 4 3-1 1-2-1-2-3h1Z"/><path fill="#FEB433" d="m206 153 3-1 1 1c1 6 1 12 4 18l4-1v1l-1 1c0 2 0 3-3 4v1l-4 1h-1v-1h-10l-2-3v-2c2 0 2-1 3-2-1-2-2-2-2-5v-2l3-1h2l1-1h1l-1-5 1-1 1-2Z"/><path fill="#D73C18" d="M201 161v1h2l1-1h1l-1-5c-2 1-3 3-3 5Zm-3 13c2-2 7-3 9-1v2l-1 1 2 1h1-10l-2-3h1Z"/><path fill="#F26E29" d="M207 173v2l-1 1 2 1h1-5c0-1-1-2 1-3h2v-1Z"/><path fill="#D73C18" d="M197 174h1l3 1-2 2-2-3Z"/><path fill="#F26E29" d="M213 176c2-1 1-3 4-4 0 2 0 3-3 4v1l-4 1h-1v-1h-1l-2-1 1-1v-2l6 3Z"/><path fill="#F99B2B" d="m207 175 2 1h4l1 1-4 1h-1v-1h-1l-2-1 1-1Zm-6-13-1 5v3c-1-2-2-2-2-5v-2l3-1Zm5-9v8-1l-1 1-1-5 1-1 1-2Z"/><path fill="#FDC747" d="m204 156 1-1 1 5-1 1-1-5Z"/><path fill="#F26E29" d="M204 161c1 2-1 2-1 4l-1 2h-2l1-5h2l1-1Z"/><path fill="#FDC747" d="M204 161c1 2-1 2-1 4l-1 2c-1-2 0-3 1-5l1-1Z"/><path fill="#F26E29" d="m205 161 1-1v1l-2 5-1-1c0-2 2-2 1-4h1Z"/><path fill="#D73C18" d="m203 165 1 1v1l-4 2v-2h2l1-2Z"/><path fill="#8B1B17" d="m126 119 4 5 4 2c-1 2-6 4-8 3l-1.5.5-.5-3.5 1-1v-2c0-1-1-2 1-4Zm69 56 2-1 2 3h10v1c-1 1-4 0-6 2l-4 2v1c-2-1-6-1-6-3l2-5Z"/><path fill="#F26E29" d="M209 178c-1 2-5 3-6 2 2-2 5-1 6-2Z"/><path fill="#8B1B17" d="M247 201v8h4l6 2-1 1v2l.5 1.5 4.18-1.4-.68-6.1 3-6 2 14 2 1h2.5l14.5-1.5h2l-.5 15L292 242l6 15 12 27 4 8-1.5 1-9.5-22-5-11-8-16.5-6-12.5-.5-13.5-14.5 1-7 .5-5-2-2-1-1-3.5-5-.5-4.5-.5-5.5 3.5-12-1.5-1-7-6-.5 2-1 4.5-1h1.5l1 6.5 4 2.5h6l4.5-4-1.5-6-7-1 .5-4 11.5 3Z"/><path fill="#F99B2B" d="M205 183v3l-1 1h-1l-1-1 3-3ZM43 223c3-1 8 1 10 2l-4 3h-4v-4h-1l-1-1Z"/><path fill="#BA6228" d="m43 223 1 1h1v4l-1 3h1l-1 2-1-10Z"/><path fill="#F99B2B" d="M29 250c2 0 6-1 7 1l1 5h3c2 1 1 6 0 8l-7-2c-6-3-4-6-4-12Z"/><path fill="#8B1B17" d="M220 159c-1-2-1-7 2-7h3l2 2 3 4 1 1 .5 2.5-.5 1.5-2 1-1 1h-2c-3-3-5-3-6-6Z"/><path fill="#F99B2B" d="M53 225v1l2 2v5h-5c-1-1-3-3-5-2h-1l1-3h4l4-3Z"/><path fill="#FEB433" d="M53 225v1l2 2-1 1v1c-2 1-7-1-9-2h4l4-3Z"/><path fill="#BA6228" d="M53 225v1l2 2-1 1-5-1 4-3Z"/><path fill="#8B1B17" d="m106 169 1-1 1 1 5 2 1 2c-1 2-9 2-10 0l2-3v-1Z"/><path fill="#B82417" d="M45 231c2-1 4 1 5 2h5c-2 4-2 3-6 3h-1c-3 0-2 0-4-2v-1l1-2Z"/><path fill="#B82417" d="m45 231 4 3-1 1v1c-3 0-2 0-4-2v-1l1-2Zm153-66c0 3 1 3 2 5-1 1-1 2-3 2v2l-2 1-1.5 6 10.5 2-5 1s-7-1-10-2l1-2 5-11 3-4Z"/><path fill="#F99B2B" d="m162 128 3 3-8.5 6-1-2.5-1.5-3.5 8-3Zm26-49 13 2c-9 7-12 17-20 25-2 3-8 4-10 6-5 2-9 4-13 8l-4 8h-3s6-13 7-16l2-6 4-13-1-1-1-9 1-1c2-2 18-7 22-7l3 4Z"/><path fill="#D73C18" d="m191 122-9 3-6 5h-3l-16 8-2.5 1-3.5-9v-2h3v3l2.56 5.96L165 131l-3-3c3-1 3-2 7-2h1l3 3 3-1 5-4-2-2 10-2 2 2Zm-44-27 2 2-2 1c-1 3 3 6 2 8-2 2 0 5-4 6l2-2c2-2 0-5-1-6l1-9Z"/><path fill="#8B1B17" d="M44 234c2 2 1 2 4 2h1v1l-4 1-1-2h1l-1-2Z"/><path fill="#F99B2B" d="m194 202-4 12v3h-3v-1l1-2 3-8v-5l3 1Z"/><path fill="url(#n)" d="m109 386-9 12 .5 5c-.02.01-5.2 3.78-9.6 9.02L90 421v6l-4 2.67V416l-1-1 2-8h4l1.5-6 2.5-9.5 1-3.5 5-2 6-1 4-1h3l-5 2Z"/><path fill="#F99B2B" d="m55 242 3-3 5 2 3 4c0 3 1 5-3 6-3-1-2-2-2-4l-2 1h-4v-6Z"/><path fill="#D73C18" d="M55 242h1v2c2 2 1 0 3 1l2 2-2 1h-4v-6Z"/><path fill="#F99B2B" d="M63 248h1l-1-3v-1l3 1c0 3 1 5-3 6-3-1-2-2-2-4l2 1Z"/><defs><linearGradient id="a" x1="72.2" x2="490.7" y1="353" y2="144.5" gradientUnits="userSpaceOnUse"><stop stop-color="#8B1B17"/><stop offset=".21" stop-color="#B92F1A"/><stop offset=".44" stop-color="#EE471E"/><stop offset="1" stop-color="#F26E29"/></linearGradient><linearGradient id="b" x1="117" x2="254" y1="61.5" y2="133.5" gradientUnits="userSpaceOnUse"><stop stop-color="#EA461E"/><stop offset="1" stop-color="#F26E29"/></linearGradient><linearGradient id="c" x1="383.5" x2="383.5" y1="71" y2="485" gradientUnits="userSpaceOnUse"><stop offset=".4" stop-color="#F26E29"/><stop offset="1" stop-color="#E74A29"/></linearGradient><linearGradient id="d" x1="227.6" x2="70.2" y1="241.24" y2="275.17" gradientUnits="userSpaceOnUse"><stop stop-color="#EF5D24"/><stop offset=".5" stop-color="#CF3E26"/><stop offset="1" stop-color="#B92F1A"/></linearGradient><linearGradient id="e" x1="324.5" x2="314.1" y1="394.8" y2="395.1" gradientUnits="userSpaceOnUse"><stop stop-color="#8B1B17"/><stop offset="1" stop-color="#BF2F28"/></linearGradient><linearGradient id="h" x1="81.7" x2="97.6" y1="125" y2="126.3" gradientUnits="userSpaceOnUse"><stop stop-color="#FE9F17"/><stop offset="1" stop-color="#FEB433"/></linearGradient><linearGradient id="i" x1="47" x2="50.98" y1="195" y2="245.11" gradientUnits="userSpaceOnUse"><stop stop-color="#620D0C"/><stop offset=".15" stop-color="#A33F20"/><stop offset=".3" stop-color="#BA6228"/><stop offset="1" stop-color="#E58F36"/></linearGradient><linearGradient id="j" x1="82.88" x2="74.14" y1="187.4" y2="173.35" gradientUnits="userSpaceOnUse"><stop stop-color="#8B1B17"/><stop offset="1" stop-color="#BA6228"/></linearGradient><linearGradient id="k" x1="55.3" x2="46" y1="204.1" y2="210.3" gradientUnits="userSpaceOnUse"><stop stop-color="#B43B19"/><stop offset="1" stop-color="#C77A34"/></linearGradient><linearGradient id="l" x1="110" x2="110.5" y1="107.5" y2="112" gradientUnits="userSpaceOnUse"><stop stop-color="#620D0C"/><stop offset="1" stop-color="#D73C18"/></linearGradient><linearGradient id="m" x1="112.5" x2="111.99" y1="155" y2="167.7" gradientUnits="userSpaceOnUse"><stop stop-color="#620D0C"/><stop offset="1" stop-color="#D73C18"/></linearGradient><linearGradient id="n" x1="107.5" x2="82.5" y1="404.5" y2="399.5" gradientUnits="userSpaceOnUse"><stop stop-color="#8B1B17"/><stop offset="1" stop-color="#BA6228"/></linearGradient></defs></svg>
